<svg width="398" height="276" viewBox="0 0 398 276" fill="none" xmlns="http://www.w3.org/2000/svg">
<path d="M0.96 32.76C0.96 30.44 1.44 28.4133 2.4 26.68C3.36 24.9467 4.69333 23.6133 6.4 22.68C8.13333 21.7467 10.1067 21.28 12.32 21.28C15.1733 21.28 17.5733 22.0667 19.52 23.64C21.4667 25.1867 22.72 27.36 23.28 30.16H14.96C14.48 28.6933 13.5467 27.96 12.16 27.96C11.1733 27.96 10.3867 28.3733 9.8 29.2C9.24 30 8.96 31.1867 8.96 32.76C8.96 34.3333 9.24 35.5333 9.8 36.36C10.3867 37.1867 11.1733 37.6 12.16 37.6C13.5733 37.6 14.5067 36.8667 14.96 35.4H23.28C22.72 38.1733 21.4667 40.3467 19.52 41.92C17.5733 43.4933 15.1733 44.28 12.32 44.28C10.1067 44.28 8.13333 43.8133 6.4 42.88C4.69333 41.9467 3.36 40.6133 2.4 38.88C1.44 37.1467 0.96 35.1067 0.96 32.76ZM36.9769 44.28C34.7369 44.28 32.7235 43.8133 30.9369 42.88C29.1769 41.9467 27.7902 40.6133 26.7769 38.88C25.7635 37.1467 25.2569 35.1067 25.2569 32.76C25.2569 30.44 25.7635 28.4133 26.7769 26.68C27.8169 24.9467 29.2169 23.6133 30.9769 22.68C32.7635 21.7467 34.7769 21.28 37.0169 21.28C39.2569 21.28 41.2569 21.7467 43.0169 22.68C44.8035 23.6133 46.2035 24.9467 47.2169 26.68C48.2569 28.4133 48.7769 30.44 48.7769 32.76C48.7769 35.08 48.2569 37.12 47.2169 38.88C46.2035 40.6133 44.8035 41.9467 43.0169 42.88C41.2302 43.8133 39.2169 44.28 36.9769 44.28ZM36.9769 37.48C38.0702 37.48 38.9769 37.08 39.6969 36.28C40.4435 35.4533 40.8169 34.28 40.8169 32.76C40.8169 31.24 40.4435 30.08 39.6969 29.28C38.9769 28.48 38.0835 28.08 37.0169 28.08C35.9502 28.08 35.0569 28.48 34.3369 29.28C33.6169 30.08 33.2569 31.24 33.2569 32.76C33.2569 34.3067 33.6035 35.48 34.2969 36.28C34.9902 37.08 35.8835 37.48 36.9769 37.48ZM66.6466 21.36C69.2332 21.36 71.2866 22.2267 72.8066 23.96C74.3266 25.6667 75.0866 27.9867 75.0866 30.92V44H67.2466V31.96C67.2466 30.68 66.9132 29.68 66.2466 28.96C65.5799 28.2133 64.6866 27.84 63.5666 27.84C62.3932 27.84 61.4732 28.2133 60.8066 28.96C60.1399 29.68 59.8066 30.68 59.8066 31.96V44H51.9666V21.56H59.8066V24.76C60.4999 23.7467 61.4332 22.9333 62.6066 22.32C63.7799 21.68 65.1266 21.36 66.6466 21.36ZM94.1484 21.36C96.7084 21.36 98.7351 22.2267 100.228 23.96C101.748 25.6667 102.508 27.9867 102.508 30.92V44H94.6684V31.96C94.6684 30.68 94.3351 29.68 93.6684 28.96C93.0018 28.2133 92.1084 27.84 90.9884 27.84C89.8151 27.84 88.8951 28.2133 88.2284 28.96C87.5618 29.68 87.2284 30.68 87.2284 31.96V44H79.3884V14.4H87.2284V24.76C87.9218 23.7467 88.8551 22.9333 90.0284 22.32C91.2284 21.68 92.6018 21.36 94.1484 21.36ZM128.25 32.52C128.25 33.1333 128.21 33.7467 128.13 34.36H113.29C113.37 35.5867 113.704 36.5067 114.29 37.12C114.904 37.7067 115.677 38 116.61 38C117.917 38 118.85 37.4133 119.41 36.24H127.77C127.424 37.7867 126.744 39.1733 125.73 40.4C124.744 41.6 123.49 42.5467 121.97 43.24C120.45 43.9333 118.77 44.28 116.93 44.28C114.717 44.28 112.744 43.8133 111.01 42.88C109.304 41.9467 107.957 40.6133 106.97 38.88C106.01 37.1467 105.53 35.1067 105.53 32.76C105.53 30.4133 106.01 28.3867 106.97 26.68C107.93 24.9467 109.264 23.6133 110.97 22.68C112.704 21.7467 114.69 21.28 116.93 21.28C119.144 21.28 121.104 21.7333 122.81 22.64C124.517 23.5467 125.85 24.8533 126.81 26.56C127.77 28.24 128.25 30.2267 128.25 32.52ZM120.25 30.56C120.25 29.6 119.93 28.8533 119.29 28.32C118.65 27.76 117.85 27.48 116.89 27.48C115.93 27.48 115.144 27.7467 114.53 28.28C113.917 28.7867 113.517 29.5467 113.33 30.56H120.25ZM141.379 37.6C142.792 37.6 143.725 36.8667 144.179 35.4H152.499C152.019 37.7733 151.019 39.72 149.499 41.24C148.005 42.7333 146.125 43.68 143.859 44.08V45.48C145.165 45.48 146.352 45.8667 147.419 46.64C148.512 47.4133 149.059 48.6 149.059 50.2C149.059 51.8267 148.485 53.0267 147.339 53.8C146.192 54.5733 144.832 54.96 143.259 54.96H136.739V50.84H142.339C143.219 50.84 143.659 50.56 143.659 50C143.659 49.44 143.219 49.16 142.339 49.16H139.219V44.08C136.472 43.6267 134.272 42.4 132.619 40.4C130.992 38.4 130.179 35.8533 130.179 32.76C130.179 30.44 130.659 28.4133 131.619 26.68C132.579 24.9467 133.912 23.6133 135.619 22.68C137.352 21.7467 139.325 21.28 141.539 21.28C144.392 21.28 146.792 22.0667 148.739 23.64C150.685 25.1867 151.939 27.36 152.499 30.16H144.179C143.699 28.6933 142.765 27.96 141.379 27.96C140.392 27.96 139.605 28.3733 139.019 29.2C138.459 30 138.179 31.1867 138.179 32.76C138.179 34.3333 138.459 35.5333 139.019 36.36C139.605 37.1867 140.392 37.6 141.379 37.6ZM154.476 32.76C154.476 30.44 154.889 28.4133 155.716 26.68C156.569 24.9467 157.716 23.6133 159.156 22.68C160.622 21.7467 162.249 21.28 164.036 21.28C165.582 21.28 166.916 21.5867 168.036 22.2C169.156 22.8133 170.022 23.64 170.636 24.68V21.56H178.476V44H170.636V40.88C170.022 41.92 169.142 42.7467 167.996 43.36C166.876 43.9733 165.556 44.28 164.036 44.28C162.249 44.28 160.622 43.8133 159.156 42.88C157.716 41.9467 156.569 40.6133 155.716 38.88C154.889 37.12 154.476 35.08 154.476 32.76ZM170.636 32.76C170.636 31.32 170.236 30.1867 169.436 29.36C168.662 28.5333 167.702 28.12 166.556 28.12C165.382 28.12 164.409 28.5333 163.636 29.36C162.862 30.16 162.476 31.2933 162.476 32.76C162.476 34.2 162.862 35.3467 163.636 36.2C164.409 37.0267 165.382 37.44 166.556 37.44C167.702 37.44 168.662 37.0267 169.436 36.2C170.236 35.3733 170.636 34.2267 170.636 32.76ZM208.696 44.28C206.456 44.28 204.442 43.8133 202.656 42.88C200.896 41.9467 199.509 40.6133 198.496 38.88C197.482 37.1467 196.976 35.1067 196.976 32.76C196.976 30.44 197.482 28.4133 198.496 26.68C199.536 24.9467 200.936 23.6133 202.696 22.68C204.482 21.7467 206.496 21.28 208.736 21.28C210.976 21.28 212.976 21.7467 214.736 22.68C216.522 23.6133 217.922 24.9467 218.936 26.68C219.976 28.4133 220.496 30.44 220.496 32.76C220.496 35.08 219.976 37.12 218.936 38.88C217.922 40.6133 216.522 41.9467 214.736 42.88C212.949 43.8133 210.936 44.28 208.696 44.28ZM208.696 37.48C209.789 37.48 210.696 37.08 211.416 36.28C212.162 35.4533 212.536 34.28 212.536 32.76C212.536 31.24 212.162 30.08 211.416 29.28C210.696 28.48 209.802 28.08 208.736 28.08C207.669 28.08 206.776 28.48 206.056 29.28C205.336 30.08 204.976 31.24 204.976 32.76C204.976 34.3067 205.322 35.48 206.016 36.28C206.709 37.08 207.602 37.48 208.696 37.48Z" fill="#F54545"/>
<path d="M9.884 187.32C11.0973 187.32 12.18 187.572 13.132 188.076C14.1027 188.58 14.8587 189.327 15.4 190.316C15.9413 191.305 16.212 192.5 16.212 193.9V203H13.048V194.376C13.048 192.995 12.7027 191.94 12.012 191.212C11.3213 190.465 10.3787 190.092 9.184 190.092C7.98933 190.092 7.03733 190.465 6.328 191.212C5.63733 191.94 5.292 192.995 5.292 194.376V203H2.1V187.572H5.292V189.336C5.81467 188.701 6.47733 188.207 7.28 187.852C8.10133 187.497 8.96933 187.32 9.884 187.32ZM26.9756 203.252C25.5196 203.252 24.2036 202.925 23.0276 202.272C21.8516 201.6 20.9276 200.667 20.2556 199.472C19.5836 198.259 19.2476 196.859 19.2476 195.272C19.2476 193.704 19.5929 192.313 20.2836 191.1C20.9743 189.887 21.9169 188.953 23.1116 188.3C24.3063 187.647 25.6409 187.32 27.1156 187.32C28.5903 187.32 29.9249 187.647 31.1196 188.3C32.3143 188.953 33.2569 189.887 33.9476 191.1C34.6383 192.313 34.9836 193.704 34.9836 195.272C34.9836 196.84 34.6289 198.231 33.9196 199.444C33.2103 200.657 32.2396 201.6 31.0076 202.272C29.7943 202.925 28.4503 203.252 26.9756 203.252ZM26.9756 200.48C27.7969 200.48 28.5623 200.284 29.2716 199.892C29.9996 199.5 30.5876 198.912 31.0356 198.128C31.4836 197.344 31.7076 196.392 31.7076 195.272C31.7076 194.152 31.4929 193.209 31.0636 192.444C30.6343 191.66 30.0649 191.072 29.3556 190.68C28.6463 190.288 27.8809 190.092 27.0596 190.092C26.2383 190.092 25.4729 190.288 24.7636 190.68C24.0729 191.072 23.5223 191.66 23.1116 192.444C22.7009 193.209 22.4956 194.152 22.4956 195.272C22.4956 196.933 22.9156 198.221 23.7556 199.136C24.6143 200.032 25.6876 200.48 26.9756 200.48ZM47.0365 185.528C46.4578 185.528 45.9725 185.332 45.5805 184.94C45.1885 184.548 44.9925 184.063 44.9925 183.484C44.9925 182.905 45.1885 182.42 45.5805 182.028C45.9725 181.636 46.4578 181.44 47.0365 181.44C47.5965 181.44 48.0725 181.636 48.4645 182.028C48.8565 182.42 49.0525 182.905 49.0525 183.484C49.0525 184.063 48.8565 184.548 48.4645 184.94C48.0725 185.332 47.5965 185.528 47.0365 185.528ZM48.6045 187.572V203H45.4125V187.572H48.6045ZM60.5793 187.32C61.7926 187.32 62.8753 187.572 63.8273 188.076C64.798 188.58 65.554 189.327 66.0953 190.316C66.6366 191.305 66.9073 192.5 66.9073 193.9V203H63.7433V194.376C63.7433 192.995 63.398 191.94 62.7073 191.212C62.0166 190.465 61.074 190.092 59.8793 190.092C58.6846 190.092 57.7326 190.465 57.0233 191.212C56.3326 191.94 55.9873 192.995 55.9873 194.376V203H52.7953V187.572H55.9873V189.336C56.51 188.701 57.1726 188.207 57.9753 187.852C58.7966 187.497 59.6646 187.32 60.5793 187.32ZM76.5789 203.252C75.3656 203.252 74.2736 203.037 73.3029 202.608C72.3509 202.16 71.5949 201.563 71.0349 200.816C70.4749 200.051 70.1762 199.201 70.1389 198.268H73.4429C73.4989 198.921 73.8069 199.472 74.3669 199.92C74.9456 200.349 75.6642 200.564 76.5229 200.564C77.4189 200.564 78.1096 200.396 78.5949 200.06C79.0989 199.705 79.3509 199.257 79.3509 198.716C79.3509 198.137 79.0709 197.708 78.5109 197.428C77.9696 197.148 77.1016 196.84 75.9069 196.504C74.7496 196.187 73.8069 195.879 73.0789 195.58C72.3509 195.281 71.7162 194.824 71.1749 194.208C70.6522 193.592 70.3909 192.78 70.3909 191.772C70.3909 190.951 70.6336 190.204 71.1189 189.532C71.6042 188.841 72.2949 188.3 73.1909 187.908C74.1056 187.516 75.1509 187.32 76.3269 187.32C78.0816 187.32 79.4909 187.768 80.5549 188.664C81.6376 189.541 82.2162 190.745 82.2909 192.276H79.0989C79.0429 191.585 78.7629 191.035 78.2589 190.624C77.7549 190.213 77.0736 190.008 76.2149 190.008C75.3749 190.008 74.7309 190.167 74.2829 190.484C73.8349 190.801 73.6109 191.221 73.6109 191.744C73.6109 192.155 73.7602 192.5 74.0589 192.78C74.3576 193.06 74.7216 193.284 75.1509 193.452C75.5802 193.601 76.2149 193.797 77.0549 194.04C78.1749 194.339 79.0896 194.647 79.7989 194.964C80.5269 195.263 81.1522 195.711 81.6749 196.308C82.1976 196.905 82.4682 197.699 82.4869 198.688C82.4869 199.565 82.2442 200.349 81.7589 201.04C81.2736 201.731 80.5829 202.272 79.6869 202.664C78.8096 203.056 77.7736 203.252 76.5789 203.252ZM89.6599 190.176V198.716C89.6599 199.295 89.7906 199.715 90.0519 199.976C90.3319 200.219 90.7986 200.34 91.4519 200.34H93.4119V203H90.8919C89.4546 203 88.3533 202.664 87.5879 201.992C86.8226 201.32 86.4399 200.228 86.4399 198.716V190.176H84.6199V187.572H86.4399V183.736H89.6599V187.572H93.4119V190.176H89.6599ZM95.2899 195.216C95.2899 193.667 95.6072 192.295 96.2419 191.1C96.8952 189.905 97.7726 188.981 98.8739 188.328C99.9939 187.656 101.226 187.32 102.57 187.32C103.783 187.32 104.838 187.563 105.734 188.048C106.649 188.515 107.377 189.103 107.918 189.812V187.572H111.138V203H107.918V200.704C107.377 201.432 106.639 202.039 105.706 202.524C104.773 203.009 103.709 203.252 102.514 203.252C101.189 203.252 99.9752 202.916 98.8739 202.244C97.7726 201.553 96.8952 200.601 96.2419 199.388C95.6072 198.156 95.2899 196.765 95.2899 195.216ZM107.918 195.272C107.918 194.208 107.694 193.284 107.246 192.5C106.817 191.716 106.247 191.119 105.538 190.708C104.829 190.297 104.063 190.092 103.242 190.092C102.421 190.092 101.655 190.297 100.946 190.708C100.237 191.1 99.6579 191.688 99.2099 192.472C98.7806 193.237 98.5659 194.152 98.5659 195.216C98.5659 196.28 98.7806 197.213 99.2099 198.016C99.6579 198.819 100.237 199.435 100.946 199.864C101.674 200.275 102.439 200.48 103.242 200.48C104.063 200.48 104.829 200.275 105.538 199.864C106.247 199.453 106.817 198.856 107.246 198.072C107.694 197.269 107.918 196.336 107.918 195.272ZM121.546 187.32C122.741 187.32 123.796 187.563 124.71 188.048C125.644 188.515 126.372 189.103 126.894 189.812V187.572H130.114V203.252C130.114 204.671 129.816 205.931 129.218 207.032C128.621 208.152 127.753 209.029 126.614 209.664C125.494 210.299 124.15 210.616 122.582 210.616C120.492 210.616 118.756 210.121 117.374 209.132C115.993 208.161 115.209 206.836 115.022 205.156H118.186C118.429 205.959 118.942 206.603 119.726 207.088C120.529 207.592 121.481 207.844 122.582 207.844C123.87 207.844 124.906 207.452 125.69 206.668C126.493 205.884 126.894 204.745 126.894 203.252V200.676C126.353 201.404 125.616 202.02 124.682 202.524C123.768 203.009 122.722 203.252 121.546 203.252C120.202 203.252 118.97 202.916 117.85 202.244C116.749 201.553 115.872 200.601 115.218 199.388C114.584 198.156 114.266 196.765 114.266 195.216C114.266 193.667 114.584 192.295 115.218 191.1C115.872 189.905 116.749 188.981 117.85 188.328C118.97 187.656 120.202 187.32 121.546 187.32ZM126.894 195.272C126.894 194.208 126.67 193.284 126.222 192.5C125.793 191.716 125.224 191.119 124.514 190.708C123.805 190.297 123.04 190.092 122.218 190.092C121.397 190.092 120.632 190.297 119.922 190.708C119.213 191.1 118.634 191.688 118.186 192.472C117.757 193.237 117.542 194.152 117.542 195.216C117.542 196.28 117.757 197.213 118.186 198.016C118.634 198.819 119.213 199.435 119.922 199.864C120.65 200.275 121.416 200.48 122.218 200.48C123.04 200.48 123.805 200.275 124.514 199.864C125.224 199.453 125.793 198.856 126.222 198.072C126.67 197.269 126.894 196.336 126.894 195.272ZM137.499 189.812C137.966 189.028 138.582 188.421 139.347 187.992C140.131 187.544 141.055 187.32 142.119 187.32V190.624H141.307C140.056 190.624 139.104 190.941 138.451 191.576C137.816 192.211 137.499 193.312 137.499 194.88V203H134.307V187.572H137.499V189.812ZM143.989 195.216C143.989 193.667 144.306 192.295 144.941 191.1C145.594 189.905 146.472 188.981 147.573 188.328C148.693 187.656 149.925 187.32 151.269 187.32C152.482 187.32 153.537 187.563 154.433 188.048C155.348 188.515 156.076 189.103 156.617 189.812V187.572H159.837V203H156.617V200.704C156.076 201.432 155.338 202.039 154.405 202.524C153.472 203.009 152.408 203.252 151.213 203.252C149.888 203.252 148.674 202.916 147.573 202.244C146.472 201.553 145.594 200.601 144.941 199.388C144.306 198.156 143.989 196.765 143.989 195.216ZM156.617 195.272C156.617 194.208 156.393 193.284 155.945 192.5C155.516 191.716 154.946 191.119 154.237 190.708C153.528 190.297 152.762 190.092 151.941 190.092C151.12 190.092 150.354 190.297 149.645 190.708C148.936 191.1 148.357 191.688 147.909 192.472C147.48 193.237 147.265 194.152 147.265 195.216C147.265 196.28 147.48 197.213 147.909 198.016C148.357 198.819 148.936 199.435 149.645 199.864C150.373 200.275 151.138 200.48 151.941 200.48C152.762 200.48 153.528 200.275 154.237 199.864C154.946 199.453 155.516 198.856 155.945 198.072C156.393 197.269 156.617 196.336 156.617 195.272ZM182.706 187.32C183.919 187.32 185.002 187.572 185.954 188.076C186.924 188.58 187.68 189.327 188.222 190.316C188.782 191.305 189.062 192.5 189.062 193.9V203H185.898V194.376C185.898 192.995 185.552 191.94 184.862 191.212C184.171 190.465 183.228 190.092 182.034 190.092C180.839 190.092 179.887 190.465 179.178 191.212C178.487 191.94 178.142 192.995 178.142 194.376V203H174.978V194.376C174.978 192.995 174.632 191.94 173.942 191.212C173.251 190.465 172.308 190.092 171.114 190.092C169.919 190.092 168.967 190.465 168.258 191.212C167.567 191.94 167.222 192.995 167.222 194.376V203H164.03V187.572H167.222V189.336C167.744 188.701 168.407 188.207 169.21 187.852C170.012 187.497 170.871 187.32 171.786 187.32C173.018 187.32 174.119 187.581 175.09 188.104C176.06 188.627 176.807 189.383 177.33 190.372C177.796 189.439 178.524 188.701 179.514 188.16C180.503 187.6 181.567 187.32 182.706 187.32ZM214.537 194.908C214.537 195.487 214.5 196.009 214.425 196.476H202.637C202.73 197.708 203.188 198.697 204.009 199.444C204.83 200.191 205.838 200.564 207.033 200.564C208.75 200.564 209.964 199.845 210.673 198.408H214.117C213.65 199.827 212.801 200.993 211.569 201.908C210.356 202.804 208.844 203.252 207.033 203.252C205.558 203.252 204.233 202.925 203.057 202.272C201.9 201.6 200.985 200.667 200.313 199.472C199.66 198.259 199.333 196.859 199.333 195.272C199.333 193.685 199.65 192.295 200.285 191.1C200.938 189.887 201.844 188.953 203.001 188.3C204.177 187.647 205.521 187.32 207.033 187.32C208.489 187.32 209.786 187.637 210.925 188.272C212.064 188.907 212.95 189.803 213.585 190.96C214.22 192.099 214.537 193.415 214.537 194.908ZM211.205 193.9C211.186 192.724 210.766 191.781 209.945 191.072C209.124 190.363 208.106 190.008 206.893 190.008C205.792 190.008 204.849 190.363 204.065 191.072C203.281 191.763 202.814 192.705 202.665 193.9H211.205ZM223.888 195.216C223.888 193.667 224.205 192.295 224.84 191.1C225.493 189.905 226.37 188.981 227.472 188.328C228.592 187.656 229.833 187.32 231.196 187.32C232.204 187.32 233.193 187.544 234.164 187.992C235.153 188.421 235.937 189 236.516 189.728V182.28H239.736V203H236.516V200.676C235.993 201.423 235.265 202.039 234.332 202.524C233.417 203.009 232.362 203.252 231.168 203.252C229.824 203.252 228.592 202.916 227.472 202.244C226.37 201.553 225.493 200.601 224.84 199.388C224.205 198.156 223.888 196.765 223.888 195.216ZM236.516 195.272C236.516 194.208 236.292 193.284 235.844 192.5C235.414 191.716 234.845 191.119 234.136 190.708C233.426 190.297 232.661 190.092 231.84 190.092C231.018 190.092 230.253 190.297 229.544 190.708C228.834 191.1 228.256 191.688 227.808 192.472C227.378 193.237 227.164 194.152 227.164 195.216C227.164 196.28 227.378 197.213 227.808 198.016C228.256 198.819 228.834 199.435 229.544 199.864C230.272 200.275 231.037 200.48 231.84 200.48C232.661 200.48 233.426 200.275 234.136 199.864C234.845 199.453 235.414 198.856 235.844 198.072C236.292 197.269 236.516 196.336 236.516 195.272ZM258.068 194.908C258.068 195.487 258.031 196.009 257.956 196.476H246.168C246.261 197.708 246.719 198.697 247.54 199.444C248.361 200.191 249.369 200.564 250.564 200.564C252.281 200.564 253.495 199.845 254.204 198.408H257.648C257.181 199.827 256.332 200.993 255.1 201.908C253.887 202.804 252.375 203.252 250.564 203.252C249.089 203.252 247.764 202.925 246.588 202.272C245.431 201.6 244.516 200.667 243.844 199.472C243.191 198.259 242.864 196.859 242.864 195.272C242.864 193.685 243.181 192.295 243.816 191.1C244.469 189.887 245.375 188.953 246.532 188.3C247.708 187.647 249.052 187.32 250.564 187.32C252.02 187.32 253.317 187.637 254.456 188.272C255.595 188.907 256.481 189.803 257.116 190.96C257.751 192.099 258.068 193.415 258.068 194.908ZM254.736 193.9C254.717 192.724 254.297 191.781 253.476 191.072C252.655 190.363 251.637 190.008 250.424 190.008C249.323 190.008 248.38 190.363 247.596 191.072C246.812 191.763 246.345 192.705 246.196 193.9H254.736ZM266.809 203.252C265.596 203.252 264.504 203.037 263.533 202.608C262.581 202.16 261.825 201.563 261.265 200.816C260.705 200.051 260.407 199.201 260.369 198.268H263.673C263.729 198.921 264.037 199.472 264.597 199.92C265.176 200.349 265.895 200.564 266.753 200.564C267.649 200.564 268.34 200.396 268.825 200.06C269.329 199.705 269.581 199.257 269.581 198.716C269.581 198.137 269.301 197.708 268.741 197.428C268.2 197.148 267.332 196.84 266.137 196.504C264.98 196.187 264.037 195.879 263.309 195.58C262.581 195.281 261.947 194.824 261.405 194.208C260.883 193.592 260.621 192.78 260.621 191.772C260.621 190.951 260.864 190.204 261.349 189.532C261.835 188.841 262.525 188.3 263.421 187.908C264.336 187.516 265.381 187.32 266.557 187.32C268.312 187.32 269.721 187.768 270.785 188.664C271.868 189.541 272.447 190.745 272.521 192.276H269.329C269.273 191.585 268.993 191.035 268.489 190.624C267.985 190.213 267.304 190.008 266.445 190.008C265.605 190.008 264.961 190.167 264.513 190.484C264.065 190.801 263.841 191.221 263.841 191.744C263.841 192.155 263.991 192.5 264.289 192.78C264.588 193.06 264.952 193.284 265.381 193.452C265.811 193.601 266.445 193.797 267.285 194.04C268.405 194.339 269.32 194.647 270.029 194.964C270.757 195.263 271.383 195.711 271.905 196.308C272.428 196.905 272.699 197.699 272.717 198.688C272.717 199.565 272.475 200.349 271.989 201.04C271.504 201.731 270.813 202.272 269.917 202.664C269.04 203.056 268.004 203.252 266.809 203.252ZM282.634 190.176H279.778V203H276.558V190.176H274.738V187.572H276.558V186.48C276.558 184.707 277.025 183.419 277.958 182.616C278.91 181.795 280.394 181.384 282.41 181.384V184.044C281.44 184.044 280.758 184.231 280.366 184.604C279.974 184.959 279.778 185.584 279.778 186.48V187.572H282.634V190.176ZM288.655 189.812C289.122 189.028 289.738 188.421 290.503 187.992C291.287 187.544 292.211 187.32 293.275 187.32V190.624H292.463C291.213 190.624 290.261 190.941 289.607 191.576C288.973 192.211 288.655 193.312 288.655 194.88V203H285.463V187.572H288.655V189.812ZM310.181 187.572V203H306.989V201.18C306.485 201.815 305.823 202.319 305.001 202.692C304.199 203.047 303.34 203.224 302.425 203.224C301.212 203.224 300.12 202.972 299.149 202.468C298.197 201.964 297.441 201.217 296.881 200.228C296.34 199.239 296.069 198.044 296.069 196.644V187.572H299.233V196.168C299.233 197.549 299.579 198.613 300.269 199.36C300.96 200.088 301.903 200.452 303.097 200.452C304.292 200.452 305.235 200.088 305.925 199.36C306.635 198.613 306.989 197.549 306.989 196.168V187.572H310.181ZM318.117 190.176V198.716C318.117 199.295 318.248 199.715 318.509 199.976C318.789 200.219 319.256 200.34 319.909 200.34H321.869V203H319.349C317.912 203 316.81 202.664 316.045 201.992C315.28 201.32 314.897 200.228 314.897 198.716V190.176H313.077V187.572H314.897V183.736H318.117V187.572H321.869V190.176H318.117ZM338.951 194.908C338.951 195.487 338.914 196.009 338.839 196.476H327.051C327.144 197.708 327.602 198.697 328.423 199.444C329.244 200.191 330.252 200.564 331.447 200.564C333.164 200.564 334.378 199.845 335.087 198.408H338.531C338.064 199.827 337.215 200.993 335.983 201.908C334.77 202.804 333.258 203.252 331.447 203.252C329.972 203.252 328.647 202.925 327.471 202.272C326.314 201.6 325.399 200.667 324.727 199.472C324.074 198.259 323.747 196.859 323.747 195.272C323.747 193.685 324.064 192.295 324.699 191.1C325.352 189.887 326.258 188.953 327.415 188.3C328.591 187.647 329.935 187.32 331.447 187.32C332.903 187.32 334.2 187.637 335.339 188.272C336.478 188.907 337.364 189.803 337.999 190.96C338.634 192.099 338.951 193.415 338.951 194.908ZM335.619 193.9C335.6 192.724 335.18 191.781 334.359 191.072C333.538 190.363 332.52 190.008 331.307 190.008C330.206 190.008 329.263 190.363 328.479 191.072C327.695 191.763 327.228 192.705 327.079 193.9H335.619ZM346.096 183.54L345.732 197.12H343.072L342.708 183.54H346.096ZM344.5 203.196C343.922 203.196 343.436 203 343.044 202.608C342.652 202.216 342.456 201.731 342.456 201.152C342.456 200.573 342.652 200.088 343.044 199.696C343.436 199.304 343.922 199.108 344.5 199.108C345.06 199.108 345.536 199.304 345.928 199.696C346.32 200.088 346.516 200.573 346.516 201.152C346.516 201.731 346.32 202.216 345.928 202.608C345.536 203 345.06 203.196 344.5 203.196Z" fill="#F54545"/>
<path d="M0.594 236.978C0.594 235.97 0.792 235.076 1.188 234.296C1.596 233.516 2.142 232.916 2.826 232.496C3.522 232.076 4.296 231.866 5.148 231.866C5.892 231.866 6.54 232.016 7.092 232.316C7.656 232.616 8.106 232.994 8.442 233.45V232.028H10.98V242H8.442V240.542C8.118 241.01 7.668 241.4 7.092 241.712C6.528 242.012 5.874 242.162 5.13 242.162C4.29 242.162 3.522 241.946 2.826 241.514C2.142 241.082 1.596 240.476 1.188 239.696C0.792 238.904 0.594 237.998 0.594 236.978ZM8.442 237.014C8.442 236.402 8.322 235.88 8.082 235.448C7.842 235.004 7.518 234.668 7.11 234.44C6.702 234.2 6.264 234.08 5.796 234.08C5.328 234.08 4.896 234.194 4.5 234.422C4.104 234.65 3.78 234.986 3.528 235.43C3.288 235.862 3.168 236.378 3.168 236.978C3.168 237.578 3.288 238.106 3.528 238.562C3.78 239.006 4.104 239.348 4.5 239.588C4.908 239.828 5.34 239.948 5.796 239.948C6.264 239.948 6.702 239.834 7.11 239.606C7.518 239.366 7.842 239.03 8.082 238.598C8.322 238.154 8.442 237.626 8.442 237.014ZM15.9612 233.576C16.2852 233.048 16.7052 232.634 17.2212 232.334C17.7492 232.034 18.3492 231.884 19.0212 231.884V234.53H18.3552C17.5632 234.53 16.9632 234.716 16.5552 235.088C16.1592 235.46 15.9612 236.108 15.9612 237.032V242H13.4412V232.028H15.9612V233.576ZM23.6526 234.098V238.922C23.6526 239.258 23.7306 239.504 23.8866 239.66C24.0546 239.804 24.3306 239.876 24.7146 239.876H25.8846V242H24.3006C22.1766 242 21.1146 240.968 21.1146 238.904V234.098H19.9266V232.028H21.1146V229.562H23.6526V232.028H25.8846V234.098H23.6526ZM36.9671 236.798C36.9671 237.158 36.9431 237.482 36.8951 237.77H29.6051C29.6651 238.49 29.9171 239.054 30.3611 239.462C30.8051 239.87 31.3511 240.074 31.9991 240.074C32.9351 240.074 33.6011 239.672 33.9971 238.868H36.7151C36.4271 239.828 35.8751 240.62 35.0591 241.244C34.2431 241.856 33.2411 242.162 32.0531 242.162C31.0931 242.162 30.2291 241.952 29.4611 241.532C28.7051 241.1 28.1111 240.494 27.6791 239.714C27.2591 238.934 27.0491 238.034 27.0491 237.014C27.0491 235.982 27.2591 235.076 27.6791 234.296C28.0991 233.516 28.6871 232.916 29.4431 232.496C30.1991 232.076 31.0691 231.866 32.0531 231.866C33.0011 231.866 33.8471 232.07 34.5911 232.478C35.3471 232.886 35.9291 233.468 36.3371 234.224C36.7571 234.968 36.9671 235.826 36.9671 236.798ZM34.3571 236.078C34.3451 235.43 34.1111 234.914 33.6551 234.53C33.1991 234.134 32.6411 233.936 31.9811 233.936C31.3571 233.936 30.8291 234.128 30.3971 234.512C29.9771 234.884 29.7191 235.406 29.6231 236.078H34.3571ZM42.6225 242.162C41.8065 242.162 41.0745 242.018 40.4265 241.73C39.7785 241.43 39.2625 241.028 38.8785 240.524C38.5065 240.02 38.3025 239.462 38.2665 238.85H40.8045C40.8525 239.234 41.0385 239.552 41.3625 239.804C41.6985 240.056 42.1125 240.182 42.6045 240.182C43.0845 240.182 43.4565 240.086 43.7205 239.894C43.9965 239.702 44.1345 239.456 44.1345 239.156C44.1345 238.832 43.9665 238.592 43.6305 238.436C43.3065 238.268 42.7845 238.088 42.0645 237.896C41.3205 237.716 40.7085 237.53 40.2285 237.338C39.7605 237.146 39.3525 236.852 39.0045 236.456C38.6685 236.06 38.5005 235.526 38.5005 234.854C38.5005 234.302 38.6565 233.798 38.9685 233.342C39.2925 232.886 39.7485 232.526 40.3365 232.262C40.9365 231.998 41.6385 231.866 42.4425 231.866C43.6305 231.866 44.5785 232.166 45.2865 232.766C45.9945 233.354 46.3845 234.152 46.4565 235.16H44.0445C44.0085 234.764 43.8405 234.452 43.5405 234.224C43.2525 233.984 42.8625 233.864 42.3705 233.864C41.9145 233.864 41.5605 233.948 41.3085 234.116C41.0685 234.284 40.9485 234.518 40.9485 234.818C40.9485 235.154 41.1165 235.412 41.4525 235.592C41.7885 235.76 42.3105 235.934 43.0185 236.114C43.7385 236.294 44.3325 236.48 44.8005 236.672C45.2685 236.864 45.6705 237.164 46.0065 237.572C46.3545 237.968 46.5345 238.496 46.5465 239.156C46.5465 239.732 46.3845 240.248 46.0605 240.704C45.7485 241.16 45.2925 241.52 44.6925 241.784C44.1045 242.036 43.4145 242.162 42.6225 242.162ZM51.369 239.354L49.263 244.412H47.643L48.813 239.354H51.369ZM58.7524 230.84C58.3084 230.84 57.9364 230.702 57.6364 230.426C57.3484 230.138 57.2044 229.784 57.2044 229.364C57.2044 228.944 57.3484 228.596 57.6364 228.32C57.9364 228.032 58.3084 227.888 58.7524 227.888C59.1964 227.888 59.5624 228.032 59.8504 228.32C60.1504 228.596 60.3004 228.944 60.3004 229.364C60.3004 229.784 60.1504 230.138 59.8504 230.426C59.5624 230.702 59.1964 230.84 58.7524 230.84ZM59.9944 232.028V242H57.4744V232.028H59.9944ZM65.0042 228.68V242H62.4842V228.68H65.0042ZM76.908 232.028V242H74.37V240.74C74.046 241.172 73.62 241.514 73.092 241.766C72.576 242.006 72.012 242.126 71.4 242.126C70.62 242.126 69.93 241.964 69.33 241.64C68.73 241.304 68.256 240.818 67.908 240.182C67.572 239.534 67.404 238.766 67.404 237.878V232.028H69.924V237.518C69.924 238.31 70.122 238.922 70.518 239.354C70.914 239.774 71.454 239.984 72.138 239.984C72.834 239.984 73.38 239.774 73.776 239.354C74.172 238.922 74.37 238.31 74.37 237.518V232.028H76.908ZM83.2103 242.162C82.3943 242.162 81.6623 242.018 81.0143 241.73C80.3663 241.43 79.8503 241.028 79.4663 240.524C79.0943 240.02 78.8903 239.462 78.8543 238.85H81.3923C81.4403 239.234 81.6263 239.552 81.9503 239.804C82.2863 240.056 82.7003 240.182 83.1923 240.182C83.6723 240.182 84.0443 240.086 84.3083 239.894C84.5843 239.702 84.7223 239.456 84.7223 239.156C84.7223 238.832 84.5543 238.592 84.2183 238.436C83.8943 238.268 83.3723 238.088 82.6523 237.896C81.9083 237.716 81.2963 237.53 80.8163 237.338C80.3483 237.146 79.9403 236.852 79.5923 236.456C79.2563 236.06 79.0883 235.526 79.0883 234.854C79.0883 234.302 79.2443 233.798 79.5563 233.342C79.8803 232.886 80.3363 232.526 80.9243 232.262C81.5243 231.998 82.2263 231.866 83.0303 231.866C84.2183 231.866 85.1663 232.166 85.8743 232.766C86.5823 233.354 86.9723 234.152 87.0443 235.16H84.6323C84.5963 234.764 84.4283 234.452 84.1283 234.224C83.8403 233.984 83.4503 233.864 82.9583 233.864C82.5023 233.864 82.1483 233.948 81.8963 234.116C81.6563 234.284 81.5363 234.518 81.5363 234.818C81.5363 235.154 81.7043 235.412 82.0403 235.592C82.3763 235.76 82.8983 235.934 83.6063 236.114C84.3263 236.294 84.9203 236.48 85.3883 236.672C85.8563 236.864 86.2583 237.164 86.5943 237.572C86.9423 237.968 87.1223 238.496 87.1343 239.156C87.1343 239.732 86.9723 240.248 86.6483 240.704C86.3363 241.16 85.8803 241.52 85.2803 241.784C84.6923 242.036 84.0023 242.162 83.2103 242.162ZM92.1369 234.098V238.922C92.1369 239.258 92.2149 239.504 92.3709 239.66C92.5389 239.804 92.8149 239.876 93.1989 239.876H94.3689V242H92.7849C90.6609 242 89.5989 240.968 89.5989 238.904V234.098H88.4109V232.028H89.5989V229.562H92.1369V232.028H94.3689V234.098H92.1369ZM98.7015 233.576C99.0255 233.048 99.4455 232.634 99.9615 232.334C100.489 232.034 101.089 231.884 101.761 231.884V234.53H101.095C100.303 234.53 99.7035 234.716 99.2955 235.088C98.8995 235.46 98.7015 236.108 98.7015 237.032V242H96.1815V232.028H98.7015V233.576ZM102.811 236.978C102.811 235.97 103.009 235.076 103.405 234.296C103.813 233.516 104.359 232.916 105.043 232.496C105.739 232.076 106.513 231.866 107.365 231.866C108.109 231.866 108.757 232.016 109.309 232.316C109.873 232.616 110.323 232.994 110.659 233.45V232.028H113.197V242H110.659V240.542C110.335 241.01 109.885 241.4 109.309 241.712C108.745 242.012 108.091 242.162 107.347 242.162C106.507 242.162 105.739 241.946 105.043 241.514C104.359 241.082 103.813 240.476 103.405 239.696C103.009 238.904 102.811 237.998 102.811 236.978ZM110.659 237.014C110.659 236.402 110.539 235.88 110.299 235.448C110.059 235.004 109.735 234.668 109.327 234.44C108.919 234.2 108.481 234.08 108.013 234.08C107.545 234.08 107.113 234.194 106.717 234.422C106.321 234.65 105.997 234.986 105.745 235.43C105.505 235.862 105.385 236.378 105.385 236.978C105.385 237.578 105.505 238.106 105.745 238.562C105.997 239.006 106.321 239.348 106.717 239.588C107.125 239.828 107.557 239.948 108.013 239.948C108.481 239.948 108.919 239.834 109.327 239.606C109.735 239.366 110.059 239.03 110.299 238.598C110.539 238.154 110.659 237.626 110.659 237.014ZM119.924 240.002C120.944 240.002 121.61 239.546 121.922 238.634H124.64C124.388 239.606 123.92 240.398 123.236 241.01C122.564 241.622 121.718 241.988 120.698 242.108V242.81C121.358 242.81 121.91 242.978 122.354 243.314C122.81 243.65 123.038 244.136 123.038 244.772C123.038 245.42 122.804 245.918 122.336 246.266C121.88 246.614 121.316 246.788 120.644 246.788H118.088V245.312H120.23C120.518 245.312 120.734 245.27 120.878 245.186C121.034 245.102 121.112 244.952 121.112 244.736C121.112 244.52 121.034 244.37 120.878 244.286C120.734 244.214 120.518 244.178 120.23 244.178H119.114V242.108C118.298 241.988 117.578 241.706 116.954 241.262C116.342 240.806 115.862 240.218 115.514 239.498C115.178 238.766 115.01 237.938 115.01 237.014C115.01 235.982 115.22 235.082 115.64 234.314C116.06 233.534 116.642 232.934 117.386 232.514C118.13 232.082 118.982 231.866 119.942 231.866C121.178 231.866 122.198 232.178 123.002 232.802C123.818 233.414 124.364 234.278 124.64 235.394H121.922C121.778 234.962 121.532 234.626 121.184 234.386C120.848 234.134 120.428 234.008 119.924 234.008C119.204 234.008 118.634 234.272 118.214 234.8C117.794 235.316 117.584 236.054 117.584 237.014C117.584 237.962 117.794 238.7 118.214 239.228C118.634 239.744 119.204 240.002 119.924 240.002ZM130.914 242.162C129.954 242.162 129.09 241.952 128.322 241.532C127.554 241.1 126.948 240.494 126.504 239.714C126.072 238.934 125.856 238.034 125.856 237.014C125.856 235.994 126.078 235.094 126.522 234.314C126.978 233.534 127.596 232.934 128.376 232.514C129.156 232.082 130.026 231.866 130.986 231.866C131.946 231.866 132.816 232.082 133.596 232.514C134.376 232.934 134.988 233.534 135.432 234.314C135.888 235.094 136.116 235.994 136.116 237.014C136.116 238.034 135.882 238.934 135.414 239.714C134.958 240.494 134.334 241.1 133.542 241.532C132.762 241.952 131.886 242.162 130.914 242.162ZM130.914 239.966C131.37 239.966 131.796 239.858 132.192 239.642C132.6 239.414 132.924 239.078 133.164 238.634C133.404 238.19 133.524 237.65 133.524 237.014C133.524 236.066 133.272 235.34 132.768 234.836C132.276 234.32 131.67 234.062 130.95 234.062C130.23 234.062 129.624 234.32 129.132 234.836C128.652 235.34 128.412 236.066 128.412 237.014C128.412 237.962 128.646 238.694 129.114 239.21C129.594 239.714 130.194 239.966 130.914 239.966ZM127.854 230.948C127.962 230.156 128.208 229.568 128.592 229.184C128.988 228.788 129.486 228.59 130.086 228.59C130.338 228.59 130.56 228.632 130.752 228.716C130.944 228.788 131.16 228.896 131.4 229.04C131.76 229.268 132.06 229.382 132.3 229.382C132.744 229.382 133.002 229.124 133.074 228.608H134.424C134.316 229.4 134.064 229.994 133.668 230.39C133.284 230.774 132.792 230.966 132.192 230.966C131.94 230.966 131.718 230.93 131.526 230.858C131.334 230.774 131.118 230.66 130.878 230.516C130.53 230.276 130.23 230.156 129.978 230.156C129.534 230.156 129.27 230.42 129.186 230.948H127.854ZM147.235 236.798C147.235 237.158 147.211 237.482 147.163 237.77H139.873C139.933 238.49 140.185 239.054 140.629 239.462C141.073 239.87 141.619 240.074 142.267 240.074C143.203 240.074 143.869 239.672 144.265 238.868H146.983C146.695 239.828 146.143 240.62 145.327 241.244C144.511 241.856 143.509 242.162 142.321 242.162C141.361 242.162 140.497 241.952 139.729 241.532C138.973 241.1 138.379 240.494 137.947 239.714C137.527 238.934 137.317 238.034 137.317 237.014C137.317 235.982 137.527 235.076 137.947 234.296C138.367 233.516 138.955 232.916 139.711 232.496C140.467 232.076 141.337 231.866 142.321 231.866C143.269 231.866 144.115 232.07 144.859 232.478C145.615 232.886 146.197 233.468 146.605 234.224C147.025 234.968 147.235 235.826 147.235 236.798ZM144.625 236.078C144.613 235.43 144.379 234.914 143.923 234.53C143.467 234.134 142.909 233.936 142.249 233.936C141.625 233.936 141.097 234.128 140.665 234.512C140.245 234.884 139.987 235.406 139.891 236.078H144.625ZM152.89 242.162C152.074 242.162 151.342 242.018 150.694 241.73C150.046 241.43 149.53 241.028 149.146 240.524C148.774 240.02 148.57 239.462 148.534 238.85H151.072C151.12 239.234 151.306 239.552 151.63 239.804C151.966 240.056 152.38 240.182 152.872 240.182C153.352 240.182 153.724 240.086 153.988 239.894C154.264 239.702 154.402 239.456 154.402 239.156C154.402 238.832 154.234 238.592 153.898 238.436C153.574 238.268 153.052 238.088 152.332 237.896C151.588 237.716 150.976 237.53 150.496 237.338C150.028 237.146 149.62 236.852 149.272 236.456C148.936 236.06 148.768 235.526 148.768 234.854C148.768 234.302 148.924 233.798 149.236 233.342C149.56 232.886 150.016 232.526 150.604 232.262C151.204 231.998 151.906 231.866 152.71 231.866C153.898 231.866 154.846 232.166 155.554 232.766C156.262 233.354 156.652 234.152 156.724 235.16H154.312C154.276 234.764 154.108 234.452 153.808 234.224C153.52 233.984 153.13 233.864 152.638 233.864C152.182 233.864 151.828 233.948 151.576 234.116C151.336 234.284 151.216 234.518 151.216 234.818C151.216 235.154 151.384 235.412 151.72 235.592C152.056 235.76 152.578 235.934 153.286 236.114C154.006 236.294 154.6 236.48 155.068 236.672C155.536 236.864 155.938 237.164 156.274 237.572C156.622 237.968 156.802 238.496 156.814 239.156C156.814 239.732 156.652 240.248 156.328 240.704C156.016 241.16 155.56 241.52 154.96 241.784C154.372 242.036 153.682 242.162 152.89 242.162ZM161.637 239.354L159.531 244.412H157.911L159.081 239.354H161.637ZM180.126 231.884C181.35 231.884 182.334 232.262 183.078 233.018C183.834 233.762 184.212 234.806 184.212 236.15V242H181.692V236.492C181.692 235.712 181.494 235.118 181.098 234.71C180.702 234.29 180.162 234.08 179.478 234.08C178.794 234.08 178.248 234.29 177.84 234.71C177.444 235.118 177.246 235.712 177.246 236.492V242H174.726V236.492C174.726 235.712 174.528 235.118 174.132 234.71C173.736 234.29 173.196 234.08 172.512 234.08C171.816 234.08 171.264 234.29 170.856 234.71C170.46 235.118 170.262 235.712 170.262 236.492V242H167.742V232.028H170.262V233.234C170.586 232.814 171 232.484 171.504 232.244C172.02 232.004 172.584 231.884 173.196 231.884C173.976 231.884 174.672 232.052 175.284 232.388C175.896 232.712 176.37 233.18 176.706 233.792C177.03 233.216 177.498 232.754 178.11 232.406C178.734 232.058 179.406 231.884 180.126 231.884ZM191.031 242.162C190.071 242.162 189.207 241.952 188.439 241.532C187.671 241.1 187.065 240.494 186.621 239.714C186.189 238.934 185.973 238.034 185.973 237.014C185.973 235.994 186.195 235.094 186.639 234.314C187.095 233.534 187.713 232.934 188.493 232.514C189.273 232.082 190.143 231.866 191.103 231.866C192.063 231.866 192.933 232.082 193.713 232.514C194.493 232.934 195.105 233.534 195.549 234.314C196.005 235.094 196.233 235.994 196.233 237.014C196.233 238.034 195.999 238.934 195.531 239.714C195.075 240.494 194.451 241.1 193.659 241.532C192.879 241.952 192.003 242.162 191.031 242.162ZM191.031 239.966C191.487 239.966 191.913 239.858 192.309 239.642C192.717 239.414 193.041 239.078 193.281 238.634C193.521 238.19 193.641 237.65 193.641 237.014C193.641 236.066 193.389 235.34 192.885 234.836C192.393 234.32 191.787 234.062 191.067 234.062C190.347 234.062 189.741 234.32 189.249 234.836C188.769 235.34 188.529 236.066 188.529 237.014C188.529 237.962 188.763 238.694 189.231 239.21C189.711 239.714 190.311 239.966 191.031 239.966ZM201.016 234.098V238.922C201.016 239.258 201.094 239.504 201.25 239.66C201.418 239.804 201.694 239.876 202.078 239.876H203.248V242H201.664C199.54 242 198.478 240.968 198.478 238.904V234.098H197.29V232.028H198.478V229.562H201.016V232.028H203.248V234.098H201.016ZM206.338 230.84C205.894 230.84 205.522 230.702 205.222 230.426C204.934 230.138 204.79 229.784 204.79 229.364C204.79 228.944 204.934 228.596 205.222 228.32C205.522 228.032 205.894 227.888 206.338 227.888C206.782 227.888 207.148 228.032 207.436 228.32C207.736 228.596 207.886 228.944 207.886 229.364C207.886 229.784 207.736 230.138 207.436 230.426C207.148 230.702 206.782 230.84 206.338 230.84ZM207.58 232.028V242H205.06V232.028H207.58ZM214.498 242.162C213.538 242.162 212.674 241.952 211.906 241.532C211.138 241.1 210.532 240.494 210.088 239.714C209.656 238.934 209.44 238.034 209.44 237.014C209.44 235.994 209.662 235.094 210.106 234.314C210.562 233.534 211.18 232.934 211.96 232.514C212.74 232.082 213.61 231.866 214.57 231.866C215.53 231.866 216.4 232.082 217.18 232.514C217.96 232.934 218.572 233.534 219.016 234.314C219.472 235.094 219.7 235.994 219.7 237.014C219.7 238.034 219.466 238.934 218.998 239.714C218.542 240.494 217.918 241.1 217.126 241.532C216.346 241.952 215.47 242.162 214.498 242.162ZM214.498 239.966C214.954 239.966 215.38 239.858 215.776 239.642C216.184 239.414 216.508 239.078 216.748 238.634C216.988 238.19 217.108 237.65 217.108 237.014C217.108 236.066 216.856 235.34 216.352 234.836C215.86 234.32 215.254 234.062 214.534 234.062C213.814 234.062 213.208 234.32 212.716 234.836C212.236 235.34 211.996 236.066 211.996 237.014C211.996 237.962 212.23 238.694 212.698 239.21C213.178 239.714 213.778 239.966 214.498 239.966ZM227.075 231.884C228.263 231.884 229.223 232.262 229.955 233.018C230.687 233.762 231.053 234.806 231.053 236.15V242H228.533V236.492C228.533 235.7 228.335 235.094 227.939 234.674C227.543 234.242 227.003 234.026 226.319 234.026C225.623 234.026 225.071 234.242 224.663 234.674C224.267 235.094 224.069 235.7 224.069 236.492V242H221.549V232.028H224.069V233.27C224.405 232.838 224.831 232.502 225.347 232.262C225.875 232.01 226.451 231.884 227.075 231.884ZM237.265 242.162C236.449 242.162 235.717 242.018 235.069 241.73C234.421 241.43 233.905 241.028 233.521 240.524C233.149 240.02 232.945 239.462 232.909 238.85H235.447C235.495 239.234 235.681 239.552 236.005 239.804C236.341 240.056 236.755 240.182 237.247 240.182C237.727 240.182 238.099 240.086 238.363 239.894C238.639 239.702 238.777 239.456 238.777 239.156C238.777 238.832 238.609 238.592 238.273 238.436C237.949 238.268 237.427 238.088 236.707 237.896C235.963 237.716 235.351 237.53 234.871 237.338C234.403 237.146 233.995 236.852 233.647 236.456C233.311 236.06 233.143 235.526 233.143 234.854C233.143 234.302 233.299 233.798 233.611 233.342C233.935 232.886 234.391 232.526 234.979 232.262C235.579 231.998 236.281 231.866 237.085 231.866C238.273 231.866 239.221 232.166 239.929 232.766C240.637 233.354 241.027 234.152 241.099 235.16H238.687C238.651 234.764 238.483 234.452 238.183 234.224C237.895 233.984 237.505 233.864 237.013 233.864C236.557 233.864 236.203 233.948 235.951 234.116C235.711 234.284 235.591 234.518 235.591 234.818C235.591 235.154 235.759 235.412 236.095 235.592C236.431 235.76 236.953 235.934 237.661 236.114C238.381 236.294 238.975 236.48 239.443 236.672C239.911 236.864 240.313 237.164 240.649 237.572C240.997 237.968 241.177 238.496 241.189 239.156C241.189 239.732 241.027 240.248 240.703 240.704C240.391 241.16 239.935 241.52 239.335 241.784C238.747 242.036 238.057 242.162 237.265 242.162ZM246.012 239.354L243.906 244.412H242.286L243.456 239.354H246.012ZM251.469 237.014C251.469 235.982 251.679 235.082 252.099 234.314C252.519 233.534 253.101 232.934 253.845 232.514C254.589 232.082 255.441 231.866 256.401 231.866C257.637 231.866 258.657 232.178 259.461 232.802C260.277 233.414 260.823 234.278 261.099 235.394H258.381C258.237 234.962 257.991 234.626 257.643 234.386C257.307 234.134 256.887 234.008 256.383 234.008C255.663 234.008 255.093 234.272 254.673 234.8C254.253 235.316 254.043 236.054 254.043 237.014C254.043 237.962 254.253 238.7 254.673 239.228C255.093 239.744 255.663 240.002 256.383 240.002C257.403 240.002 258.069 239.546 258.381 238.634H261.099C260.823 239.714 260.277 240.572 259.461 241.208C258.645 241.844 257.625 242.162 256.401 242.162C255.441 242.162 254.589 241.952 253.845 241.532C253.101 241.1 252.519 240.5 252.099 239.732C251.679 238.952 251.469 238.046 251.469 237.014ZM262.297 236.978C262.297 235.97 262.495 235.076 262.891 234.296C263.299 233.516 263.845 232.916 264.529 232.496C265.225 232.076 265.999 231.866 266.851 231.866C267.595 231.866 268.243 232.016 268.795 232.316C269.359 232.616 269.809 232.994 270.145 233.45V232.028H272.683V242H270.145V240.542C269.821 241.01 269.371 241.4 268.795 241.712C268.231 242.012 267.577 242.162 266.833 242.162C265.993 242.162 265.225 241.946 264.529 241.514C263.845 241.082 263.299 240.476 262.891 239.696C262.495 238.904 262.297 237.998 262.297 236.978ZM270.145 237.014C270.145 236.402 270.025 235.88 269.785 235.448C269.545 235.004 269.221 234.668 268.813 234.44C268.405 234.2 267.967 234.08 267.499 234.08C267.031 234.08 266.599 234.194 266.203 234.422C265.807 234.65 265.483 234.986 265.231 235.43C264.991 235.862 264.871 236.378 264.871 236.978C264.871 237.578 264.991 238.106 265.231 238.562C265.483 239.006 265.807 239.348 266.203 239.588C266.611 239.828 267.043 239.948 267.499 239.948C267.967 239.948 268.405 239.834 268.813 239.606C269.221 239.366 269.545 239.03 269.785 238.598C270.025 238.154 270.145 237.626 270.145 237.014ZM277.664 233.576C277.988 233.048 278.408 232.634 278.924 232.334C279.452 232.034 280.052 231.884 280.724 231.884V234.53H280.058C279.266 234.53 278.666 234.716 278.258 235.088C277.862 235.46 277.664 236.108 277.664 237.032V242H275.144V232.028H277.664V233.576ZM285.356 234.098V238.922C285.356 239.258 285.434 239.504 285.59 239.66C285.758 239.804 286.034 239.876 286.418 239.876H287.588V242H286.004C283.88 242 282.818 240.968 282.818 238.904V234.098H281.63V232.028H282.818V229.562H285.356V232.028H287.588V234.098H285.356ZM293.828 242.162C292.868 242.162 292.004 241.952 291.236 241.532C290.468 241.1 289.862 240.494 289.418 239.714C288.986 238.934 288.77 238.034 288.77 237.014C288.77 235.994 288.992 235.094 289.436 234.314C289.892 233.534 290.51 232.934 291.29 232.514C292.07 232.082 292.94 231.866 293.9 231.866C294.86 231.866 295.73 232.082 296.51 232.514C297.29 232.934 297.902 233.534 298.346 234.314C298.802 235.094 299.03 235.994 299.03 237.014C299.03 238.034 298.796 238.934 298.328 239.714C297.872 240.494 297.248 241.1 296.456 241.532C295.676 241.952 294.8 242.162 293.828 242.162ZM293.828 239.966C294.284 239.966 294.71 239.858 295.106 239.642C295.514 239.414 295.838 239.078 296.078 238.634C296.318 238.19 296.438 237.65 296.438 237.014C296.438 236.066 296.186 235.34 295.682 234.836C295.19 234.32 294.584 234.062 293.864 234.062C293.144 234.062 292.538 234.32 292.046 234.836C291.566 235.34 291.326 236.066 291.326 237.014C291.326 237.962 291.56 238.694 292.028 239.21C292.508 239.714 293.108 239.966 293.828 239.966ZM290.768 230.948C290.876 230.156 291.122 229.568 291.506 229.184C291.902 228.788 292.4 228.59 293 228.59C293.252 228.59 293.474 228.632 293.666 228.716C293.858 228.788 294.074 228.896 294.314 229.04C294.674 229.268 294.974 229.382 295.214 229.382C295.658 229.382 295.916 229.124 295.988 228.608H297.338C297.23 229.4 296.978 229.994 296.582 230.39C296.198 230.774 295.706 230.966 295.106 230.966C294.854 230.966 294.632 230.93 294.44 230.858C294.248 230.774 294.032 230.66 293.792 230.516C293.444 230.276 293.144 230.156 292.892 230.156C292.448 230.156 292.184 230.42 292.1 230.948H290.768ZM310.149 236.798C310.149 237.158 310.125 237.482 310.077 237.77H302.787C302.847 238.49 303.099 239.054 303.543 239.462C303.987 239.87 304.533 240.074 305.181 240.074C306.117 240.074 306.783 239.672 307.179 238.868H309.897C309.609 239.828 309.057 240.62 308.241 241.244C307.425 241.856 306.423 242.162 305.235 242.162C304.275 242.162 303.411 241.952 302.643 241.532C301.887 241.1 301.293 240.494 300.861 239.714C300.441 238.934 300.231 238.034 300.231 237.014C300.231 235.982 300.441 235.076 300.861 234.296C301.281 233.516 301.869 232.916 302.625 232.496C303.381 232.076 304.251 231.866 305.235 231.866C306.183 231.866 307.029 232.07 307.773 232.478C308.529 232.886 309.111 233.468 309.519 234.224C309.939 234.968 310.149 235.826 310.149 236.798ZM307.539 236.078C307.527 235.43 307.293 234.914 306.837 234.53C306.381 234.134 305.823 233.936 305.163 233.936C304.539 233.936 304.011 234.128 303.579 234.512C303.159 234.884 302.901 235.406 302.805 236.078H307.539ZM315.804 242.162C314.988 242.162 314.256 242.018 313.608 241.73C312.96 241.43 312.444 241.028 312.06 240.524C311.688 240.02 311.484 239.462 311.448 238.85H313.986C314.034 239.234 314.22 239.552 314.544 239.804C314.88 240.056 315.294 240.182 315.786 240.182C316.266 240.182 316.638 240.086 316.902 239.894C317.178 239.702 317.316 239.456 317.316 239.156C317.316 238.832 317.148 238.592 316.812 238.436C316.488 238.268 315.966 238.088 315.246 237.896C314.502 237.716 313.89 237.53 313.41 237.338C312.942 237.146 312.534 236.852 312.186 236.456C311.85 236.06 311.682 235.526 311.682 234.854C311.682 234.302 311.838 233.798 312.15 233.342C312.474 232.886 312.93 232.526 313.518 232.262C314.118 231.998 314.82 231.866 315.624 231.866C316.812 231.866 317.76 232.166 318.468 232.766C319.176 233.354 319.566 234.152 319.638 235.16H317.226C317.19 234.764 317.022 234.452 316.722 234.224C316.434 233.984 316.044 233.864 315.552 233.864C315.096 233.864 314.742 233.948 314.49 234.116C314.25 234.284 314.13 234.518 314.13 234.818C314.13 235.154 314.298 235.412 314.634 235.592C314.97 235.76 315.492 235.934 316.2 236.114C316.92 236.294 317.514 236.48 317.982 236.672C318.45 236.864 318.852 237.164 319.188 237.572C319.536 237.968 319.716 238.496 319.728 239.156C319.728 239.732 319.566 240.248 319.242 240.704C318.93 241.16 318.474 241.52 317.874 241.784C317.286 242.036 316.596 242.162 315.804 242.162ZM325.438 236.978C325.438 235.97 325.636 235.076 326.032 234.296C326.44 233.516 326.992 232.916 327.688 232.496C328.384 232.076 329.158 231.866 330.01 231.866C330.658 231.866 331.276 232.01 331.864 232.298C332.452 232.574 332.92 232.946 333.268 233.414V228.68H335.824V242H333.268V240.524C332.956 241.016 332.518 241.412 331.954 241.712C331.39 242.012 330.736 242.162 329.992 242.162C329.152 242.162 328.384 241.946 327.688 241.514C326.992 241.082 326.44 240.476 326.032 239.696C325.636 238.904 325.438 237.998 325.438 236.978ZM333.286 237.014C333.286 236.402 333.166 235.88 332.926 235.448C332.686 235.004 332.362 234.668 331.954 234.44C331.546 234.2 331.108 234.08 330.64 234.08C330.172 234.08 329.74 234.194 329.344 234.422C328.948 234.65 328.624 234.986 328.372 235.43C328.132 235.862 328.012 236.378 328.012 236.978C328.012 237.578 328.132 238.106 328.372 238.562C328.624 239.006 328.948 239.348 329.344 239.588C329.752 239.828 330.184 239.948 330.64 239.948C331.108 239.948 331.546 239.834 331.954 239.606C332.362 239.366 332.686 239.03 332.926 238.598C333.166 238.154 333.286 237.626 333.286 237.014ZM339.563 230.84C339.119 230.84 338.747 230.702 338.447 230.426C338.159 230.138 338.015 229.784 338.015 229.364C338.015 228.944 338.159 228.596 338.447 228.32C338.747 228.032 339.119 227.888 339.563 227.888C340.007 227.888 340.373 228.032 340.661 228.32C340.961 228.596 341.111 228.944 341.111 229.364C341.111 229.784 340.961 230.138 340.661 230.426C340.373 230.702 340.007 230.84 339.563 230.84ZM340.805 232.028V242H338.285V232.028H340.805ZM347.201 231.866C347.945 231.866 348.599 232.016 349.163 232.316C349.727 232.604 350.171 232.982 350.495 233.45V232.028H353.033V242.072C353.033 242.996 352.847 243.818 352.475 244.538C352.103 245.27 351.545 245.846 350.801 246.266C350.057 246.698 349.157 246.914 348.101 246.914C346.685 246.914 345.521 246.584 344.609 245.924C343.709 245.264 343.199 244.364 343.079 243.224H345.581C345.713 243.68 345.995 244.04 346.427 244.304C346.871 244.58 347.405 244.718 348.029 244.718C348.761 244.718 349.355 244.496 349.811 244.052C350.267 243.62 350.495 242.96 350.495 242.072V240.524C350.171 240.992 349.721 241.382 349.145 241.694C348.581 242.006 347.933 242.162 347.201 242.162C346.361 242.162 345.593 241.946 344.897 241.514C344.201 241.082 343.649 240.476 343.241 239.696C342.845 238.904 342.647 237.998 342.647 236.978C342.647 235.97 342.845 235.076 343.241 234.296C343.649 233.516 344.195 232.916 344.879 232.496C345.575 232.076 346.349 231.866 347.201 231.866ZM350.495 237.014C350.495 236.402 350.375 235.88 350.135 235.448C349.895 235.004 349.571 234.668 349.163 234.44C348.755 234.2 348.317 234.08 347.849 234.08C347.381 234.08 346.949 234.194 346.553 234.422C346.157 234.65 345.833 234.986 345.581 235.43C345.341 235.862 345.221 236.378 345.221 236.978C345.221 237.578 345.341 238.106 345.581 238.562C345.833 239.006 346.157 239.348 346.553 239.588C346.961 239.828 347.393 239.948 347.849 239.948C348.317 239.948 348.755 239.834 349.163 239.606C349.571 239.366 349.895 239.03 350.135 238.598C350.375 238.154 350.495 237.626 350.495 237.014ZM356.772 230.84C356.328 230.84 355.956 230.702 355.656 230.426C355.368 230.138 355.224 229.784 355.224 229.364C355.224 228.944 355.368 228.596 355.656 228.32C355.956 228.032 356.328 227.888 356.772 227.888C357.216 227.888 357.582 228.032 357.87 228.32C358.17 228.596 358.32 228.944 358.32 229.364C358.32 229.784 358.17 230.138 357.87 230.426C357.582 230.702 357.216 230.84 356.772 230.84ZM358.014 232.028V242H355.494V232.028H358.014ZM363.438 234.098V238.922C363.438 239.258 363.516 239.504 363.672 239.66C363.84 239.804 364.116 239.876 364.5 239.876H365.67V242H364.086C361.962 242 360.9 240.968 360.9 238.904V234.098H359.712V232.028H360.9V229.562H363.438V232.028H365.67V234.098H363.438ZM366.834 236.978C366.834 235.97 367.032 235.076 367.428 234.296C367.836 233.516 368.382 232.916 369.066 232.496C369.762 232.076 370.536 231.866 371.388 231.866C372.132 231.866 372.78 232.016 373.332 232.316C373.896 232.616 374.346 232.994 374.682 233.45V232.028H377.22V242H374.682V240.542C374.358 241.01 373.908 241.4 373.332 241.712C372.768 242.012 372.114 242.162 371.37 242.162C370.53 242.162 369.762 241.946 369.066 241.514C368.382 241.082 367.836 240.476 367.428 239.696C367.032 238.904 366.834 237.998 366.834 236.978ZM374.682 237.014C374.682 236.402 374.562 235.88 374.322 235.448C374.082 235.004 373.758 234.668 373.35 234.44C372.942 234.2 372.504 234.08 372.036 234.08C371.568 234.08 371.136 234.194 370.74 234.422C370.344 234.65 370.02 234.986 369.768 235.43C369.528 235.862 369.408 236.378 369.408 236.978C369.408 237.578 369.528 238.106 369.768 238.562C370.02 239.006 370.344 239.348 370.74 239.588C371.148 239.828 371.58 239.948 372.036 239.948C372.504 239.948 372.942 239.834 373.35 239.606C373.758 239.366 374.082 239.03 374.322 238.598C374.562 238.154 374.682 237.626 374.682 237.014ZM380.959 230.84C380.515 230.84 380.143 230.702 379.843 230.426C379.555 230.138 379.411 229.784 379.411 229.364C379.411 228.944 379.555 228.596 379.843 228.32C380.143 228.032 380.515 227.888 380.959 227.888C381.403 227.888 381.769 228.032 382.057 228.32C382.357 228.596 382.507 228.944 382.507 229.364C382.507 229.784 382.357 230.138 382.057 230.426C381.769 230.702 381.403 230.84 380.959 230.84ZM382.201 232.028V242H379.681V232.028H382.201ZM388.507 242.162C387.691 242.162 386.959 242.018 386.311 241.73C385.663 241.43 385.147 241.028 384.763 240.524C384.391 240.02 384.187 239.462 384.151 238.85H386.689C386.737 239.234 386.923 239.552 387.247 239.804C387.583 240.056 387.997 240.182 388.489 240.182C388.969 240.182 389.341 240.086 389.605 239.894C389.881 239.702 390.019 239.456 390.019 239.156C390.019 238.832 389.851 238.592 389.515 238.436C389.191 238.268 388.669 238.088 387.949 237.896C387.205 237.716 386.593 237.53 386.113 237.338C385.645 237.146 385.237 236.852 384.889 236.456C384.553 236.06 384.385 235.526 384.385 234.854C384.385 234.302 384.541 233.798 384.853 233.342C385.177 232.886 385.633 232.526 386.221 232.262C386.821 231.998 387.523 231.866 388.327 231.866C389.515 231.866 390.463 232.166 391.171 232.766C391.879 233.354 392.269 234.152 392.341 235.16H389.929C389.893 234.764 389.725 234.452 389.425 234.224C389.137 233.984 388.747 233.864 388.255 233.864C387.799 233.864 387.445 233.948 387.193 234.116C386.953 234.284 386.833 234.518 386.833 234.818C386.833 235.154 387.001 235.412 387.337 235.592C387.673 235.76 388.195 235.934 388.903 236.114C389.623 236.294 390.217 236.48 390.685 236.672C391.153 236.864 391.555 237.164 391.891 237.572C392.239 237.968 392.419 238.496 392.431 239.156C392.431 239.732 392.269 240.248 391.945 240.704C391.633 241.16 391.177 241.52 390.577 241.784C389.989 242.036 389.299 242.162 388.507 242.162ZM397.254 239.354L395.148 244.412H393.528L394.698 239.354H397.254ZM3.762 255.68V269H1.242V255.68H3.762ZM10.6798 269.162C9.71977 269.162 8.85577 268.952 8.08777 268.532C7.31977 268.1 6.71377 267.494 6.26977 266.714C5.83777 265.934 5.62177 265.034 5.62177 264.014C5.62177 262.994 5.84377 262.094 6.28777 261.314C6.74377 260.534 7.36177 259.934 8.14177 259.514C8.92177 259.082 9.79177 258.866 10.7518 258.866C11.7118 258.866 12.5818 259.082 13.3618 259.514C14.1418 259.934 14.7538 260.534 15.1978 261.314C15.6538 262.094 15.8818 262.994 15.8818 264.014C15.8818 265.034 15.6478 265.934 15.1798 266.714C14.7238 267.494 14.0998 268.1 13.3078 268.532C12.5278 268.952 11.6518 269.162 10.6798 269.162ZM10.6798 266.966C11.1358 266.966 11.5618 266.858 11.9578 266.642C12.3658 266.414 12.6898 266.078 12.9298 265.634C13.1698 265.19 13.2898 264.65 13.2898 264.014C13.2898 263.066 13.0378 262.34 12.5338 261.836C12.0418 261.32 11.4358 261.062 10.7158 261.062C9.99577 261.062 9.38977 261.32 8.89777 261.836C8.41777 262.34 8.17777 263.066 8.17777 264.014C8.17777 264.962 8.41177 265.694 8.87977 266.21C9.35977 266.714 9.95977 266.966 10.6798 266.966ZM21.6363 258.866C22.3803 258.866 23.0343 259.016 23.5983 259.316C24.1623 259.604 24.6063 259.982 24.9303 260.45V259.028H27.4683V269.072C27.4683 269.996 27.2823 270.818 26.9103 271.538C26.5383 272.27 25.9803 272.846 25.2363 273.266C24.4923 273.698 23.5923 273.914 22.5363 273.914C21.1203 273.914 19.9563 273.584 19.0443 272.924C18.1443 272.264 17.6343 271.364 17.5143 270.224H20.0163C20.1483 270.68 20.4303 271.04 20.8623 271.304C21.3063 271.58 21.8403 271.718 22.4643 271.718C23.1963 271.718 23.7903 271.496 24.2463 271.052C24.7023 270.62 24.9303 269.96 24.9303 269.072V267.524C24.6063 267.992 24.1563 268.382 23.5803 268.694C23.0163 269.006 22.3683 269.162 21.6363 269.162C20.7963 269.162 20.0283 268.946 19.3323 268.514C18.6363 268.082 18.0843 267.476 17.6763 266.696C17.2803 265.904 17.0823 264.998 17.0823 263.978C17.0823 262.97 17.2803 262.076 17.6763 261.296C18.0843 260.516 18.6303 259.916 19.3143 259.496C20.0103 259.076 20.7843 258.866 21.6363 258.866ZM24.9303 264.014C24.9303 263.402 24.8103 262.88 24.5703 262.448C24.3303 262.004 24.0063 261.668 23.5983 261.44C23.1903 261.2 22.7523 261.08 22.2843 261.08C21.8163 261.08 21.3843 261.194 20.9883 261.422C20.5923 261.65 20.2683 261.986 20.0163 262.43C19.7763 262.862 19.6563 263.378 19.6563 263.978C19.6563 264.578 19.7763 265.106 20.0163 265.562C20.2683 266.006 20.5923 266.348 20.9883 266.588C21.3963 266.828 21.8283 266.948 22.2843 266.948C22.7523 266.948 23.1903 266.834 23.5983 266.606C24.0063 266.366 24.3303 266.03 24.5703 265.598C24.8103 265.154 24.9303 264.626 24.9303 264.014ZM34.3575 269.162C33.3975 269.162 32.5335 268.952 31.7655 268.532C30.9975 268.1 30.3915 267.494 29.9475 266.714C29.5155 265.934 29.2995 265.034 29.2995 264.014C29.2995 262.994 29.5215 262.094 29.9655 261.314C30.4215 260.534 31.0395 259.934 31.8195 259.514C32.5995 259.082 33.4695 258.866 34.4295 258.866C35.3895 258.866 36.2595 259.082 37.0395 259.514C37.8195 259.934 38.4315 260.534 38.8755 261.314C39.3315 262.094 39.5595 262.994 39.5595 264.014C39.5595 265.034 39.3255 265.934 38.8575 266.714C38.4015 267.494 37.7775 268.1 36.9855 268.532C36.2055 268.952 35.3295 269.162 34.3575 269.162ZM34.3575 266.966C34.8135 266.966 35.2395 266.858 35.6355 266.642C36.0435 266.414 36.3675 266.078 36.6075 265.634C36.8475 265.19 36.9675 264.65 36.9675 264.014C36.9675 263.066 36.7155 262.34 36.2115 261.836C35.7195 261.32 35.1135 261.062 34.3935 261.062C33.6735 261.062 33.0675 261.32 32.5755 261.836C32.0955 262.34 31.8555 263.066 31.8555 264.014C31.8555 264.962 32.0895 265.694 32.5575 266.21C33.0375 266.714 33.6375 266.966 34.3575 266.966ZM44.342 261.098V265.922C44.342 266.258 44.42 266.504 44.576 266.66C44.744 266.804 45.02 266.876 45.404 266.876H46.574V269H44.99C42.866 269 41.804 267.968 41.804 265.904V261.098H40.616V259.028H41.804V256.562H44.342V259.028H46.574V261.098H44.342ZM49.6645 257.84C49.2205 257.84 48.8485 257.702 48.5485 257.426C48.2605 257.138 48.1165 256.784 48.1165 256.364C48.1165 255.944 48.2605 255.596 48.5485 255.32C48.8485 255.032 49.2205 254.888 49.6645 254.888C50.1085 254.888 50.4745 255.032 50.7625 255.32C51.0625 255.596 51.2125 255.944 51.2125 256.364C51.2125 256.784 51.0625 257.138 50.7625 257.426C50.4745 257.702 50.1085 257.84 49.6645 257.84ZM50.9065 259.028V269H48.3865V259.028H50.9065ZM55.9163 260.468C56.2403 260.012 56.6843 259.634 57.2483 259.334C57.8243 259.022 58.4783 258.866 59.2103 258.866C60.0623 258.866 60.8303 259.076 61.5143 259.496C62.2103 259.916 62.7563 260.516 63.1523 261.296C63.5603 262.064 63.7643 262.958 63.7643 263.978C63.7643 264.998 63.5603 265.904 63.1523 266.696C62.7563 267.476 62.2103 268.082 61.5143 268.514C60.8303 268.946 60.0623 269.162 59.2103 269.162C58.4783 269.162 57.8303 269.012 57.2663 268.712C56.7143 268.412 56.2643 268.034 55.9163 267.578V273.752H53.3963V259.028H55.9163V260.468ZM61.1903 263.978C61.1903 263.378 61.0643 262.862 60.8123 262.43C60.5723 261.986 60.2483 261.65 59.8403 261.422C59.4443 261.194 59.0123 261.08 58.5443 261.08C58.0883 261.08 57.6563 261.2 57.2483 261.44C56.8523 261.668 56.5283 262.004 56.2763 262.448C56.0363 262.892 55.9163 263.414 55.9163 264.014C55.9163 264.614 56.0363 265.136 56.2763 265.58C56.5283 266.024 56.8523 266.366 57.2483 266.606C57.6563 266.834 58.0883 266.948 58.5443 266.948C59.0123 266.948 59.4443 266.828 59.8403 266.588C60.2483 266.348 60.5723 266.006 60.8123 265.562C61.0643 265.118 61.1903 264.59 61.1903 263.978ZM70.0235 269.162C69.0635 269.162 68.1995 268.952 67.4315 268.532C66.6635 268.1 66.0575 267.494 65.6135 266.714C65.1815 265.934 64.9655 265.034 64.9655 264.014C64.9655 262.994 65.1875 262.094 65.6315 261.314C66.0875 260.534 66.7055 259.934 67.4855 259.514C68.2655 259.082 69.1355 258.866 70.0955 258.866C71.0555 258.866 71.9255 259.082 72.7055 259.514C73.4855 259.934 74.0975 260.534 74.5415 261.314C74.9975 262.094 75.2255 262.994 75.2255 264.014C75.2255 265.034 74.9915 265.934 74.5235 266.714C74.0675 267.494 73.4435 268.1 72.6515 268.532C71.8715 268.952 70.9955 269.162 70.0235 269.162ZM70.0235 266.966C70.4795 266.966 70.9055 266.858 71.3015 266.642C71.7095 266.414 72.0335 266.078 72.2735 265.634C72.5135 265.19 72.6335 264.65 72.6335 264.014C72.6335 263.066 72.3815 262.34 71.8775 261.836C71.3855 261.32 70.7795 261.062 70.0595 261.062C69.3395 261.062 68.7335 261.32 68.2415 261.836C67.7615 262.34 67.5215 263.066 67.5215 264.014C67.5215 264.962 67.7555 265.694 68.2235 266.21C68.7035 266.714 69.3035 266.966 70.0235 266.966ZM80.89 269.162C80.074 269.162 79.342 269.018 78.694 268.73C78.046 268.43 77.53 268.028 77.146 267.524C76.774 267.02 76.57 266.462 76.534 265.85H79.072C79.12 266.234 79.306 266.552 79.63 266.804C79.966 267.056 80.38 267.182 80.872 267.182C81.352 267.182 81.724 267.086 81.988 266.894C82.264 266.702 82.402 266.456 82.402 266.156C82.402 265.832 82.234 265.592 81.898 265.436C81.574 265.268 81.052 265.088 80.332 264.896C79.588 264.716 78.976 264.53 78.496 264.338C78.028 264.146 77.62 263.852 77.272 263.456C76.936 263.06 76.768 262.526 76.768 261.854C76.768 261.302 76.924 260.798 77.236 260.342C77.56 259.886 78.016 259.526 78.604 259.262C79.204 258.998 79.906 258.866 80.71 258.866C81.898 258.866 82.846 259.166 83.554 259.766C84.262 260.354 84.652 261.152 84.724 262.16H82.312C82.276 261.764 82.108 261.452 81.808 261.224C81.52 260.984 81.13 260.864 80.638 260.864C80.182 260.864 79.828 260.948 79.576 261.116C79.336 261.284 79.216 261.518 79.216 261.818C79.216 262.154 79.384 262.412 79.72 262.592C80.056 262.76 80.578 262.934 81.286 263.114C82.006 263.294 82.6 263.48 83.068 263.672C83.536 263.864 83.938 264.164 84.274 264.572C84.622 264.968 84.802 265.496 84.814 266.156C84.814 266.732 84.652 267.248 84.328 267.704C84.016 268.16 83.56 268.52 82.96 268.784C82.372 269.036 81.682 269.162 80.89 269.162ZM89.6366 266.354L87.5306 271.412H85.9106L87.0806 266.354H89.6366ZM95.094 264.014C95.094 262.982 95.304 262.082 95.724 261.314C96.144 260.534 96.726 259.934 97.47 259.514C98.214 259.082 99.066 258.866 100.026 258.866C101.262 258.866 102.282 259.178 103.086 259.802C103.902 260.414 104.448 261.278 104.724 262.394H102.006C101.862 261.962 101.616 261.626 101.268 261.386C100.932 261.134 100.512 261.008 100.008 261.008C99.288 261.008 98.718 261.272 98.298 261.8C97.878 262.316 97.668 263.054 97.668 264.014C97.668 264.962 97.878 265.7 98.298 266.228C98.718 266.744 99.288 267.002 100.008 267.002C101.028 267.002 101.694 266.546 102.006 265.634H104.724C104.448 266.714 103.902 267.572 103.086 268.208C102.27 268.844 101.25 269.162 100.026 269.162C99.066 269.162 98.214 268.952 97.47 268.532C96.726 268.1 96.144 267.5 95.724 266.732C95.304 265.952 95.094 265.046 95.094 264.014ZM110.998 269.162C110.038 269.162 109.174 268.952 108.406 268.532C107.638 268.1 107.032 267.494 106.588 266.714C106.156 265.934 105.94 265.034 105.94 264.014C105.94 262.994 106.162 262.094 106.606 261.314C107.062 260.534 107.68 259.934 108.46 259.514C109.24 259.082 110.11 258.866 111.07 258.866C112.03 258.866 112.9 259.082 113.68 259.514C114.46 259.934 115.072 260.534 115.516 261.314C115.972 262.094 116.2 262.994 116.2 264.014C116.2 265.034 115.966 265.934 115.498 266.714C115.042 267.494 114.418 268.1 113.626 268.532C112.846 268.952 111.97 269.162 110.998 269.162ZM110.998 266.966C111.454 266.966 111.88 266.858 112.276 266.642C112.684 266.414 113.008 266.078 113.248 265.634C113.488 265.19 113.608 264.65 113.608 264.014C113.608 263.066 113.356 262.34 112.852 261.836C112.36 261.32 111.754 261.062 111.034 261.062C110.314 261.062 109.708 261.32 109.216 261.836C108.736 262.34 108.496 263.066 108.496 264.014C108.496 264.962 108.73 265.694 109.198 266.21C109.678 266.714 110.278 266.966 110.998 266.966ZM123.575 258.884C124.763 258.884 125.723 259.262 126.455 260.018C127.187 260.762 127.553 261.806 127.553 263.15V269H125.033V263.492C125.033 262.7 124.835 262.094 124.439 261.674C124.043 261.242 123.503 261.026 122.819 261.026C122.123 261.026 121.571 261.242 121.163 261.674C120.767 262.094 120.569 262.7 120.569 263.492V269H118.049V259.028H120.569V260.27C120.905 259.838 121.331 259.502 121.847 259.262C122.375 259.01 122.951 258.884 123.575 258.884ZM129.301 264.014C129.301 262.982 129.511 262.082 129.931 261.314C130.351 260.534 130.933 259.934 131.677 259.514C132.421 259.082 133.273 258.866 134.233 258.866C135.469 258.866 136.489 259.178 137.293 259.802C138.109 260.414 138.655 261.278 138.931 262.394H136.213C136.069 261.962 135.823 261.626 135.475 261.386C135.139 261.134 134.719 261.008 134.215 261.008C133.495 261.008 132.925 261.272 132.505 261.8C132.085 262.316 131.875 263.054 131.875 264.014C131.875 264.962 132.085 265.7 132.505 266.228C132.925 266.744 133.495 267.002 134.215 267.002C135.235 267.002 135.901 266.546 136.213 265.634H138.931C138.655 266.714 138.109 267.572 137.293 268.208C136.477 268.844 135.457 269.162 134.233 269.162C133.273 269.162 132.421 268.952 131.677 268.532C130.933 268.1 130.351 267.5 129.931 266.732C129.511 265.952 129.301 265.046 129.301 264.014ZM150.047 263.798C150.047 264.158 150.023 264.482 149.975 264.77H142.685C142.745 265.49 142.997 266.054 143.441 266.462C143.885 266.87 144.431 267.074 145.079 267.074C146.015 267.074 146.681 266.672 147.077 265.868H149.795C149.507 266.828 148.955 267.62 148.139 268.244C147.323 268.856 146.321 269.162 145.133 269.162C144.173 269.162 143.309 268.952 142.541 268.532C141.785 268.1 141.191 267.494 140.759 266.714C140.339 265.934 140.129 265.034 140.129 264.014C140.129 262.982 140.339 262.076 140.759 261.296C141.179 260.516 141.767 259.916 142.523 259.496C143.279 259.076 144.149 258.866 145.133 258.866C146.081 258.866 146.927 259.07 147.671 259.478C148.427 259.886 149.009 260.468 149.417 261.224C149.837 261.968 150.047 262.826 150.047 263.798ZM147.437 263.078C147.425 262.43 147.191 261.914 146.735 261.53C146.279 261.134 145.721 260.936 145.061 260.936C144.437 260.936 143.909 261.128 143.477 261.512C143.057 261.884 142.799 262.406 142.703 263.078H147.437ZM154.407 260.468C154.731 260.012 155.175 259.634 155.739 259.334C156.315 259.022 156.969 258.866 157.701 258.866C158.553 258.866 159.321 259.076 160.005 259.496C160.701 259.916 161.247 260.516 161.643 261.296C162.051 262.064 162.255 262.958 162.255 263.978C162.255 264.998 162.051 265.904 161.643 266.696C161.247 267.476 160.701 268.082 160.005 268.514C159.321 268.946 158.553 269.162 157.701 269.162C156.969 269.162 156.321 269.012 155.757 268.712C155.205 268.412 154.755 268.034 154.407 267.578V273.752H151.887V259.028H154.407V260.468ZM159.681 263.978C159.681 263.378 159.555 262.862 159.303 262.43C159.063 261.986 158.739 261.65 158.331 261.422C157.935 261.194 157.503 261.08 157.035 261.08C156.579 261.08 156.147 261.2 155.739 261.44C155.343 261.668 155.019 262.004 154.767 262.448C154.527 262.892 154.407 263.414 154.407 264.014C154.407 264.614 154.527 265.136 154.767 265.58C155.019 266.024 155.343 266.366 155.739 266.606C156.147 266.834 156.579 266.948 157.035 266.948C157.503 266.948 157.935 266.828 158.331 266.588C158.739 266.348 159.063 266.006 159.303 265.562C159.555 265.118 159.681 264.59 159.681 263.978ZM167.02 261.098V265.922C167.02 266.258 167.098 266.504 167.254 266.66C167.422 266.804 167.698 266.876 168.082 266.876H169.252V269H167.668C165.544 269 164.482 267.968 164.482 265.904V261.098H163.294V259.028H164.482V256.562H167.02V259.028H169.252V261.098H167.02ZM174.88 269.162C174.064 269.162 173.332 269.018 172.684 268.73C172.036 268.43 171.52 268.028 171.136 267.524C170.764 267.02 170.56 266.462 170.524 265.85H173.062C173.11 266.234 173.296 266.552 173.62 266.804C173.956 267.056 174.37 267.182 174.862 267.182C175.342 267.182 175.714 267.086 175.978 266.894C176.254 266.702 176.392 266.456 176.392 266.156C176.392 265.832 176.224 265.592 175.888 265.436C175.564 265.268 175.042 265.088 174.322 264.896C173.578 264.716 172.966 264.53 172.486 264.338C172.018 264.146 171.61 263.852 171.262 263.456C170.926 263.06 170.758 262.526 170.758 261.854C170.758 261.302 170.914 260.798 171.226 260.342C171.55 259.886 172.006 259.526 172.594 259.262C173.194 258.998 173.896 258.866 174.7 258.866C175.888 258.866 176.836 259.166 177.544 259.766C178.252 260.354 178.642 261.152 178.714 262.16H176.302C176.266 261.764 176.098 261.452 175.798 261.224C175.51 260.984 175.12 260.864 174.628 260.864C174.172 260.864 173.818 260.948 173.566 261.116C173.326 261.284 173.206 261.518 173.206 261.818C173.206 262.154 173.374 262.412 173.71 262.592C174.046 262.76 174.568 262.934 175.276 263.114C175.996 263.294 176.59 263.48 177.058 263.672C177.526 263.864 177.928 264.164 178.264 264.572C178.612 264.968 178.792 265.496 178.804 266.156C178.804 266.732 178.642 267.248 178.318 267.704C178.006 268.16 177.55 268.52 176.95 268.784C176.362 269.036 175.672 269.162 174.88 269.162ZM194.432 263.798C194.432 264.158 194.408 264.482 194.36 264.77H187.07C187.13 265.49 187.382 266.054 187.826 266.462C188.27 266.87 188.816 267.074 189.464 267.074C190.4 267.074 191.066 266.672 191.462 265.868H194.18C193.892 266.828 193.34 267.62 192.524 268.244C191.708 268.856 190.706 269.162 189.518 269.162C188.558 269.162 187.694 268.952 186.926 268.532C186.17 268.1 185.576 267.494 185.144 266.714C184.724 265.934 184.514 265.034 184.514 264.014C184.514 262.982 184.724 262.076 185.144 261.296C185.564 260.516 186.152 259.916 186.908 259.496C187.664 259.076 188.534 258.866 189.518 258.866C190.466 258.866 191.312 259.07 192.056 259.478C192.812 259.886 193.394 260.468 193.802 261.224C194.222 261.968 194.432 262.826 194.432 263.798ZM191.822 263.078C191.81 262.43 191.576 261.914 191.12 261.53C190.664 261.134 190.106 260.936 189.446 260.936C188.822 260.936 188.294 261.128 187.862 261.512C187.442 261.884 187.184 262.406 187.088 263.078H191.822ZM212.944 258.884C214.168 258.884 215.152 259.262 215.896 260.018C216.652 260.762 217.03 261.806 217.03 263.15V269H214.51V263.492C214.51 262.712 214.312 262.118 213.916 261.71C213.52 261.29 212.98 261.08 212.296 261.08C211.612 261.08 211.066 261.29 210.658 261.71C210.262 262.118 210.064 262.712 210.064 263.492V269H207.544V263.492C207.544 262.712 207.346 262.118 206.95 261.71C206.554 261.29 206.014 261.08 205.33 261.08C204.634 261.08 204.082 261.29 203.674 261.71C203.278 262.118 203.08 262.712 203.08 263.492V269H200.56V259.028H203.08V260.234C203.404 259.814 203.818 259.484 204.322 259.244C204.838 259.004 205.402 258.884 206.014 258.884C206.794 258.884 207.49 259.052 208.102 259.388C208.714 259.712 209.188 260.18 209.524 260.792C209.848 260.216 210.316 259.754 210.928 259.406C211.552 259.058 212.224 258.884 212.944 258.884ZM228.836 259.028V269H226.298V267.74C225.974 268.172 225.548 268.514 225.02 268.766C224.504 269.006 223.94 269.126 223.328 269.126C222.548 269.126 221.858 268.964 221.258 268.64C220.658 268.304 220.184 267.818 219.836 267.182C219.5 266.534 219.332 265.766 219.332 264.878V259.028H221.852V264.518C221.852 265.31 222.05 265.922 222.446 266.354C222.842 266.774 223.382 266.984 224.066 266.984C224.762 266.984 225.308 266.774 225.704 266.354C226.1 265.922 226.298 265.31 226.298 264.518V259.028H228.836ZM232.6 257.84C232.156 257.84 231.784 257.702 231.484 257.426C231.196 257.138 231.052 256.784 231.052 256.364C231.052 255.944 231.196 255.596 231.484 255.32C231.784 255.032 232.156 254.888 232.6 254.888C233.044 254.888 233.41 255.032 233.698 255.32C233.998 255.596 234.148 255.944 234.148 256.364C234.148 256.784 233.998 257.138 233.698 257.426C233.41 257.702 233.044 257.84 232.6 257.84ZM233.842 259.028V269H231.322V259.028H233.842ZM239.266 261.098V265.922C239.266 266.258 239.344 266.504 239.5 266.66C239.668 266.804 239.944 266.876 240.328 266.876H241.498V269H239.914C237.79 269 236.728 267.968 236.728 265.904V261.098H235.54V259.028H236.728V256.562H239.266V259.028H241.498V261.098H239.266ZM247.738 269.162C246.778 269.162 245.914 268.952 245.146 268.532C244.378 268.1 243.772 267.494 243.328 266.714C242.896 265.934 242.68 265.034 242.68 264.014C242.68 262.994 242.902 262.094 243.346 261.314C243.802 260.534 244.42 259.934 245.2 259.514C245.98 259.082 246.85 258.866 247.81 258.866C248.77 258.866 249.64 259.082 250.42 259.514C251.2 259.934 251.812 260.534 252.256 261.314C252.712 262.094 252.94 262.994 252.94 264.014C252.94 265.034 252.706 265.934 252.238 266.714C251.782 267.494 251.158 268.1 250.366 268.532C249.586 268.952 248.71 269.162 247.738 269.162ZM247.738 266.966C248.194 266.966 248.62 266.858 249.016 266.642C249.424 266.414 249.748 266.078 249.988 265.634C250.228 265.19 250.348 264.65 250.348 264.014C250.348 263.066 250.096 262.34 249.592 261.836C249.1 261.32 248.494 261.062 247.774 261.062C247.054 261.062 246.448 261.32 245.956 261.836C245.476 262.34 245.236 263.066 245.236 264.014C245.236 264.962 245.47 265.694 245.938 266.21C246.418 266.714 247.018 266.966 247.738 266.966ZM271.462 258.884C272.686 258.884 273.67 259.262 274.414 260.018C275.17 260.762 275.548 261.806 275.548 263.15V269H273.028V263.492C273.028 262.712 272.83 262.118 272.434 261.71C272.038 261.29 271.498 261.08 270.814 261.08C270.13 261.08 269.584 261.29 269.176 261.71C268.78 262.118 268.582 262.712 268.582 263.492V269H266.062V263.492C266.062 262.712 265.864 262.118 265.468 261.71C265.072 261.29 264.532 261.08 263.848 261.08C263.152 261.08 262.6 261.29 262.192 261.71C261.796 262.118 261.598 262.712 261.598 263.492V269H259.078V259.028H261.598V260.234C261.922 259.814 262.336 259.484 262.84 259.244C263.356 259.004 263.92 258.884 264.532 258.884C265.312 258.884 266.008 259.052 266.62 259.388C267.232 259.712 267.706 260.18 268.042 260.792C268.366 260.216 268.834 259.754 269.446 259.406C270.07 259.058 270.742 258.884 271.462 258.884ZM277.291 263.978C277.291 262.97 277.489 262.076 277.885 261.296C278.293 260.516 278.839 259.916 279.523 259.496C280.219 259.076 280.993 258.866 281.845 258.866C282.589 258.866 283.237 259.016 283.789 259.316C284.353 259.616 284.803 259.994 285.139 260.45V259.028H287.677V269H285.139V267.542C284.815 268.01 284.365 268.4 283.789 268.712C283.225 269.012 282.571 269.162 281.827 269.162C280.987 269.162 280.219 268.946 279.523 268.514C278.839 268.082 278.293 267.476 277.885 266.696C277.489 265.904 277.291 264.998 277.291 263.978ZM285.139 264.014C285.139 263.402 285.019 262.88 284.779 262.448C284.539 262.004 284.215 261.668 283.807 261.44C283.399 261.2 282.961 261.08 282.493 261.08C282.025 261.08 281.593 261.194 281.197 261.422C280.801 261.65 280.477 261.986 280.225 262.43C279.985 262.862 279.865 263.378 279.865 263.978C279.865 264.578 279.985 265.106 280.225 265.562C280.477 266.006 280.801 266.348 281.197 266.588C281.605 266.828 282.037 266.948 282.493 266.948C282.961 266.948 283.399 266.834 283.807 266.606C284.215 266.366 284.539 266.03 284.779 265.598C285.019 265.154 285.139 264.626 285.139 264.014ZM291.416 257.84C290.972 257.84 290.6 257.702 290.3 257.426C290.012 257.138 289.868 256.784 289.868 256.364C289.868 255.944 290.012 255.596 290.3 255.32C290.6 255.032 290.972 254.888 291.416 254.888C291.86 254.888 292.226 255.032 292.514 255.32C292.814 255.596 292.964 255.944 292.964 256.364C292.964 256.784 292.814 257.138 292.514 257.426C292.226 257.702 291.86 257.84 291.416 257.84ZM292.658 259.028V269H290.138V259.028H292.658ZM298.964 269.162C298.148 269.162 297.416 269.018 296.768 268.73C296.12 268.43 295.604 268.028 295.22 267.524C294.848 267.02 294.644 266.462 294.608 265.85H297.146C297.194 266.234 297.38 266.552 297.704 266.804C298.04 267.056 298.454 267.182 298.946 267.182C299.426 267.182 299.798 267.086 300.062 266.894C300.338 266.702 300.476 266.456 300.476 266.156C300.476 265.832 300.308 265.592 299.972 265.436C299.648 265.268 299.126 265.088 298.406 264.896C297.662 264.716 297.05 264.53 296.57 264.338C296.102 264.146 295.694 263.852 295.346 263.456C295.01 263.06 294.842 262.526 294.842 261.854C294.842 261.302 294.998 260.798 295.31 260.342C295.634 259.886 296.09 259.526 296.678 259.262C297.278 258.998 297.98 258.866 298.784 258.866C299.972 258.866 300.92 259.166 301.628 259.766C302.336 260.354 302.726 261.152 302.798 262.16H300.386C300.35 261.764 300.182 261.452 299.882 261.224C299.594 260.984 299.204 260.864 298.712 260.864C298.256 260.864 297.902 260.948 297.65 261.116C297.41 261.284 297.29 261.518 297.29 261.818C297.29 262.154 297.458 262.412 297.794 262.592C298.13 262.76 298.652 262.934 299.36 263.114C300.08 263.294 300.674 263.48 301.142 263.672C301.61 263.864 302.012 264.164 302.348 264.572C302.696 264.968 302.876 265.496 302.888 266.156C302.888 266.732 302.726 267.248 302.402 267.704C302.09 268.16 301.634 268.52 301.034 268.784C300.446 269.036 299.756 269.162 298.964 269.162ZM306.073 269.126C305.617 269.126 305.239 268.988 304.939 268.712C304.651 268.424 304.507 268.07 304.507 267.65C304.507 267.23 304.651 266.882 304.939 266.606C305.239 266.318 305.617 266.174 306.073 266.174C306.517 266.174 306.883 266.318 307.171 266.606C307.459 266.882 307.603 267.23 307.603 267.65C307.603 268.07 307.459 268.424 307.171 268.712C306.883 268.988 306.517 269.126 306.073 269.126Z" fill="white"/>
<path d="M60.672 67.008C68.288 67.008 74.976 68.48 80.736 71.424C86.56 74.304 91.04 78.4 94.176 83.712C97.312 88.96 98.88 95.008 98.88 101.856C98.88 107.488 97.888 112.64 95.904 117.312C93.984 121.92 91.104 125.6 87.264 128.352C83.424 131.104 78.848 132.48 73.536 132.48C70.08 132.48 67.168 131.84 64.8 130.56C62.496 129.216 60.864 127.328 59.904 124.896C58.24 127.392 56.032 129.312 53.28 130.656C50.592 132 47.552 132.672 44.16 132.672C39.424 132.672 35.712 131.296 33.024 128.544C30.4 125.792 29.088 121.952 29.088 117.024C29.088 112.416 30.016 108.064 31.872 103.968C33.728 99.872 36.288 96.608 39.552 94.176C42.88 91.68 46.592 90.432 50.688 90.432C53.376 90.432 55.616 90.976 57.408 92.064C59.2 93.088 60.48 94.528 61.248 96.384L62.208 91.008H76.992L73.056 113.664C72.864 114.624 72.768 115.52 72.768 116.352C72.768 118.976 73.92 120.288 76.224 120.288C79.04 120.288 81.184 118.528 82.656 115.008C84.128 111.488 84.864 107.296 84.864 102.432C84.864 97.76 83.808 93.696 81.696 90.24C79.648 86.784 76.672 84.128 72.768 82.272C68.864 80.416 64.256 79.488 58.944 79.488C51.84 79.488 45.376 81.216 39.552 84.672C33.792 88.064 29.248 92.672 25.92 98.496C22.656 104.32 21.024 110.72 21.024 117.696C21.024 125.184 23.2 131.072 27.552 135.36C31.904 139.648 37.984 141.792 45.792 141.792C52.256 141.792 58.048 140.672 63.168 138.432L66.24 150.336C59.84 153.152 52.608 154.56 44.544 154.56C37.056 154.56 30.496 153.088 24.864 150.144C19.232 147.264 14.88 143.136 11.808 137.76C8.736 132.384 7.2 126.144 7.2 119.04C7.2 109.12 9.536 100.224 14.208 92.352C18.88 84.416 25.28 78.208 33.408 73.728C41.536 69.248 50.624 67.008 60.672 67.008ZM50.304 119.424C52.48 119.424 54.4 118.496 56.064 116.64C57.728 114.72 58.56 112.416 58.56 109.728C58.56 107.872 58.08 106.4 57.12 105.312C56.16 104.16 54.848 103.584 53.184 103.584C50.88 103.584 48.928 104.576 47.328 106.56C45.792 108.48 45.024 110.816 45.024 113.568C45.024 115.36 45.472 116.8 46.368 117.888C47.328 118.912 48.64 119.424 50.304 119.424ZM130.13 87.648C132.242 84.576 134.802 82.144 137.81 80.352C140.818 78.56 144.05 77.664 147.506 77.664V97.728H142.226C138.13 97.728 135.09 98.528 133.106 100.128C131.122 101.728 130.13 104.512 130.13 108.48V132H111.314V78.144H130.13V87.648ZM179.307 132.672C173.931 132.672 169.099 131.552 164.811 129.312C160.587 127.072 157.259 123.872 154.827 119.712C152.395 115.552 151.179 110.656 151.179 105.024C151.179 99.456 152.395 94.592 154.827 90.432C157.323 86.272 160.683 83.072 164.907 80.832C169.195 78.592 174.027 77.472 179.403 77.472C184.779 77.472 189.579 78.592 193.803 80.832C198.091 83.072 201.451 86.272 203.883 90.432C206.379 94.592 207.627 99.456 207.627 105.024C207.627 110.592 206.379 115.488 203.883 119.712C201.451 123.872 198.091 127.072 193.803 129.312C189.515 131.552 184.683 132.672 179.307 132.672ZM179.307 116.352C181.931 116.352 184.107 115.392 185.835 113.472C187.627 111.488 188.523 108.672 188.523 105.024C188.523 101.376 187.627 98.592 185.835 96.672C184.107 94.752 181.963 93.792 179.403 93.792C176.843 93.792 174.699 94.752 172.971 96.672C171.243 98.592 170.379 101.376 170.379 105.024C170.379 108.736 171.211 111.552 172.875 113.472C174.539 115.392 176.683 116.352 179.307 116.352ZM235.154 77.472C238.802 77.472 241.97 78.208 244.658 79.68C247.41 81.152 249.522 83.136 250.994 85.632V78.144H269.81V131.424C269.81 136.48 268.85 141.024 266.93 145.056C265.01 149.152 262.002 152.416 257.906 154.848C253.874 157.28 248.754 158.496 242.546 158.496C234.226 158.496 227.57 156.544 222.578 152.64C217.586 148.736 214.738 143.424 214.034 136.704H232.562C232.946 138.432 233.906 139.776 235.442 140.736C236.978 141.696 238.962 142.176 241.394 142.176C247.794 142.176 250.994 138.592 250.994 131.424V124.512C249.522 127.008 247.41 128.992 244.658 130.464C241.97 131.936 238.802 132.672 235.154 132.672C230.866 132.672 226.962 131.552 223.442 129.312C219.986 127.072 217.234 123.872 215.186 119.712C213.202 115.488 212.21 110.592 212.21 105.024C212.21 99.456 213.202 94.592 215.186 90.432C217.234 86.272 219.986 83.072 223.442 80.832C226.962 78.592 230.866 77.472 235.154 77.472ZM250.994 105.024C250.994 101.568 250.034 98.848 248.114 96.864C246.258 94.88 243.954 93.888 241.202 93.888C238.386 93.888 236.05 94.88 234.194 96.864C232.338 98.784 231.41 101.504 231.41 105.024C231.41 108.48 232.338 111.232 234.194 113.28C236.05 115.264 238.386 116.256 241.202 116.256C243.954 116.256 246.258 115.264 248.114 113.28C250.034 111.296 250.994 108.544 250.994 105.024ZM298.388 116.352H321.332V132H277.652V117.12L299.06 93.792H277.844V78.144H320.564V93.024L298.388 116.352ZM352.133 132.672C347.269 132.672 342.917 131.872 339.077 130.272C335.301 128.608 332.293 126.368 330.053 123.552C327.877 120.672 326.661 117.44 326.405 113.856H344.645C344.901 115.584 345.701 116.928 347.045 117.888C348.389 118.848 350.053 119.328 352.036 119.328C353.573 119.328 354.789 119.008 355.685 118.368C356.581 117.728 357.029 116.896 357.029 115.872C357.029 114.528 356.293 113.536 354.821 112.896C353.349 112.256 350.917 111.552 347.525 110.784C343.685 110.016 340.485 109.152 337.924 108.192C335.365 107.232 333.125 105.664 331.205 103.488C329.349 101.312 328.421 98.368 328.421 94.656C328.421 91.456 329.285 88.576 331.013 86.016C332.741 83.392 335.269 81.312 338.597 79.776C341.989 78.24 346.053 77.472 350.789 77.472C357.829 77.472 363.365 79.2 367.397 82.656C371.429 86.112 373.765 90.656 374.405 96.288H357.413C357.093 94.56 356.325 93.248 355.109 92.352C353.957 91.392 352.389 90.912 350.405 90.912C348.869 90.912 347.685 91.2 346.853 91.776C346.085 92.352 345.701 93.152 345.701 94.176C345.701 95.456 346.437 96.448 347.909 97.152C349.381 97.792 351.749 98.464 355.013 99.168C358.917 100 362.149 100.928 364.709 101.952C367.333 102.976 369.605 104.64 371.525 106.944C373.509 109.184 374.5 112.256 374.5 116.16C374.5 119.296 373.573 122.112 371.717 124.608C369.925 127.104 367.333 129.088 363.941 130.56C360.613 131.968 356.677 132.672 352.133 132.672Z" fill="white"/>
</svg>
